M48
; DRILL file {KiCad 7.0.10} date Friday, February 02, 2024 at 11:11:54 PM
; FORMAT={-:-/ absolute / inch / decimal}
; #@! TF.CreationDate,2024-02-02T23:11:54-08:00
; #@! TF.GenerationSoftware,Kicad,Pcbnew,7.0.10
; #@! TF.FileFunction,Plated,1,2,PTH
FMAT,2
INCH
; #@! TA.AperFunction,Plated,PTH,ComponentDrill
T1C0.0394
; #@! TA.AperFunction,Plated,PTH,ComponentDrill
T2C0.0400
%
G90
G05
T1
X0.9843Y-1.6311
X0.9843Y-1.7311
X0.9843Y-1.8311
X0.9843Y-1.9311
X0.9843Y-2.0311
X0.9843Y-2.1311
X0.9843Y-2.2311
X0.9843Y-2.3311
X0.9843Y-2.4311
X0.9843Y-2.5311
X0.9843Y-3.2311
X0.9843Y-3.3311
X0.9843Y-3.4311
X0.9843Y-3.5311
X0.9843Y-3.6311
X0.9843Y-3.7311
X0.9843Y-3.8311
X0.9843Y-3.9311
X0.9843Y-4.0311
X0.9843Y-4.1311
X1.8217Y-1.1344
X1.8217Y-1.2344
X1.9217Y-1.1344
X1.9217Y-1.2344
X2.0217Y-1.1344
X2.0217Y-1.2344
X2.1217Y-1.1344
X2.1217Y-1.2344
X2.2217Y-1.1344
X2.2217Y-1.2344
X3.0315Y-1.6311
X3.0315Y-1.7311
X3.0315Y-1.8311
X3.0315Y-1.9311
X3.0315Y-2.0311
X3.0315Y-2.1311
X3.0315Y-2.2311
X3.0315Y-2.3311
X3.0315Y-2.4311
X3.0315Y-2.5311
X3.0315Y-3.2311
X3.0315Y-3.3311
X3.0315Y-3.4311
X3.0315Y-3.5311
X3.0315Y-3.6311
X3.0315Y-3.7311
X3.0315Y-3.8311
X3.0315Y-3.9311
X3.0315Y-4.0311
X3.0315Y-4.1311
T2
X1.3126Y-3.9405
X1.3126Y-4.0405
X1.4126Y-3.9505
X1.4126Y-4.0505
X1.4182Y-1.6301
X1.4182Y-1.8301
X1.4182Y-2.0301
X1.4282Y-1.7301
X1.4282Y-1.9301
X1.5126Y-3.9405
X1.5126Y-4.0405
X1.5182Y-1.6301
X1.5182Y-1.8301
X1.5182Y-2.0301
X1.5282Y-1.7301
X1.5282Y-1.9301
X1.6126Y-3.9505
X1.6126Y-4.0505
X1.7126Y-3.9405
X1.7126Y-4.0405
X2.3362Y-3.9405
X2.3362Y-4.0405
X2.4362Y-3.9505
X2.4362Y-4.0505
X2.5206Y-1.6301
X2.5206Y-1.8301
X2.5206Y-2.0301
X2.5306Y-1.7301
X2.5306Y-1.9301
X2.5362Y-3.9405
X2.5362Y-4.0405
X2.6206Y-1.6301
X2.6206Y-1.8301
X2.6206Y-2.0301
X2.6306Y-1.7301
X2.6306Y-1.9301
X2.6362Y-3.9505
X2.6362Y-4.0505
X2.7362Y-3.9405
X2.7362Y-4.0405
M30
