%TF.GenerationSoftware,KiCad,Pcbnew,7.0.10*%
%TF.CreationDate,2024-02-02T23:11:49-08:00*%
%TF.ProjectId,Patch_SM_Breadboard_Adapter,50617463-685f-4534-9d5f-427265616462,rev?*%
%TF.SameCoordinates,Original*%
%TF.FileFunction,Copper,L2,Bot*%
%TF.FilePolarity,Positive*%
%FSLAX46Y46*%
G04 Gerber Fmt 4.6, Leading zero omitted, Abs format (unit mm)*
G04 Created by KiCad (PCBNEW 7.0.10) date 2024-02-02 23:11:49*
%MOMM*%
%LPD*%
G01*
G04 APERTURE LIST*
G04 Aperture macros list*
%AMRoundRect*
0 Rectangle with rounded corners*
0 $1 Rounding radius*
0 $2 $3 $4 $5 $6 $7 $8 $9 X,Y pos of 4 corners*
0 Add a 4 corners polygon primitive as box body*
4,1,4,$2,$3,$4,$5,$6,$7,$8,$9,$2,$3,0*
0 Add four circle primitives for the rounded corners*
1,1,$1+$1,$2,$3*
1,1,$1+$1,$4,$5*
1,1,$1+$1,$6,$7*
1,1,$1+$1,$8,$9*
0 Add four rect primitives between the rounded corners*
20,1,$1+$1,$2,$3,$4,$5,0*
20,1,$1+$1,$4,$5,$6,$7,0*
20,1,$1+$1,$6,$7,$8,$9,0*
20,1,$1+$1,$8,$9,$2,$3,0*%
G04 Aperture macros list end*
%TA.AperFunction,ComponentPad*%
%ADD10C,1.879600*%
%TD*%
%TA.AperFunction,ComponentPad*%
%ADD11RoundRect,0.250000X-0.600000X0.600000X-0.600000X-0.600000X0.600000X-0.600000X0.600000X0.600000X0*%
%TD*%
%TA.AperFunction,ComponentPad*%
%ADD12C,1.700000*%
%TD*%
%TA.AperFunction,ComponentPad*%
%ADD13R,1.700000X1.700000*%
%TD*%
%TA.AperFunction,ComponentPad*%
%ADD14O,1.700000X1.700000*%
%TD*%
%TA.AperFunction,Conductor*%
%ADD15C,0.200000*%
%TD*%
G04 APERTURE END LIST*
D10*
%TO.P,U$1,D1*%
%TO.N,D1*%
X64023000Y-41405000D03*
%TO.P,U$1,D10*%
%TO.N,D10*%
X66563000Y-41405000D03*
%TO.P,U$1,D2*%
%TO.N,D2*%
X64277000Y-43945000D03*
%TO.P,U$1,D9*%
%TO.N,D9*%
X66817000Y-43945000D03*
%TO.P,U$1,D3*%
%TO.N,D3*%
X64023000Y-46485000D03*
%TO.P,U$1,D8*%
%TO.N,D8*%
X66563000Y-46485000D03*
%TO.P,U$1,D4*%
%TO.N,D4*%
X64277000Y-49025000D03*
%TO.P,U$1,D7*%
%TO.N,D7*%
X66817000Y-49025000D03*
%TO.P,U$1,D5*%
%TO.N,D5*%
X64023000Y-51565000D03*
%TO.P,U$1,D6*%
%TO.N,D6*%
X66563000Y-51565000D03*
%TO.P,U$1,C6*%
%TO.N,C6*%
X69500000Y-100088000D03*
%TO.P,U$1,C5*%
%TO.N,C5*%
X69500000Y-102628000D03*
%TO.P,U$1,C7*%
%TO.N,C7*%
X66960000Y-100342000D03*
%TO.P,U$1,C4*%
%TO.N,C4*%
X66960000Y-102882000D03*
%TO.P,U$1,C8*%
%TO.N,C8*%
X64420000Y-100088000D03*
%TO.P,U$1,C3*%
%TO.N,C3*%
X64420000Y-102628000D03*
%TO.P,U$1,C9*%
%TO.N,C9*%
X61880000Y-100342000D03*
%TO.P,U$1,C2*%
%TO.N,C2*%
X61880000Y-102882000D03*
%TO.P,U$1,C10*%
%TO.N,C10*%
X59340000Y-100088000D03*
%TO.P,U$1,C1*%
%TO.N,C1*%
X59340000Y-102628000D03*
%TO.P,U$1,B6*%
%TO.N,B6*%
X43500000Y-100088000D03*
%TO.P,U$1,B5*%
%TO.N,B5*%
X43500000Y-102628000D03*
%TO.P,U$1,B7*%
%TO.N,B7*%
X40960000Y-100342000D03*
%TO.P,U$1,B4*%
%TO.N,B4*%
X40960000Y-102882000D03*
%TO.P,U$1,B8*%
%TO.N,B8*%
X38420000Y-100088000D03*
%TO.P,U$1,B3*%
%TO.N,B3*%
X38420000Y-102628000D03*
%TO.P,U$1,B9*%
%TO.N,B9*%
X35880000Y-100342000D03*
%TO.P,U$1,B2*%
%TO.N,B2*%
X35880000Y-102882000D03*
%TO.P,U$1,B10*%
%TO.N,B10*%
X33340000Y-100088000D03*
%TO.P,U$1,B1*%
%TO.N,B1*%
X33340000Y-102628000D03*
%TO.P,U$1,A1*%
%TO.N,-12V*%
X36023000Y-41405000D03*
%TO.P,U$1,A10*%
%TO.N,A10*%
X38563000Y-41405000D03*
%TO.P,U$1,A2*%
%TO.N,A2*%
X36277000Y-43945000D03*
%TO.P,U$1,A9*%
%TO.N,A9*%
X38817000Y-43945000D03*
%TO.P,U$1,A3*%
%TO.N,A3*%
X36023000Y-46485000D03*
%TO.P,U$1,A8*%
%TO.N,A8*%
X38563000Y-46485000D03*
%TO.P,U$1,A4*%
%TO.N,GND*%
X36277000Y-49025000D03*
%TO.P,U$1,A7*%
X38817000Y-49025000D03*
%TO.P,U$1,A5*%
%TO.N,+12V*%
X36023000Y-51565000D03*
%TO.P,U$1,A6*%
%TO.N,A6*%
X38563000Y-51565000D03*
%TD*%
D11*
%TO.P,REF\u002A\u002A,1*%
%TO.N,-12V*%
X46270000Y-28815000D03*
D12*
%TO.P,REF\u002A\u002A,2*%
X46270000Y-31355000D03*
%TO.P,REF\u002A\u002A,3*%
%TO.N,GND*%
X48810000Y-28815000D03*
%TO.P,REF\u002A\u002A,4*%
X48810000Y-31355000D03*
%TO.P,REF\u002A\u002A,5*%
X51350000Y-28815000D03*
%TO.P,REF\u002A\u002A,6*%
X51350000Y-31355000D03*
%TO.P,REF\u002A\u002A,7*%
X53890000Y-28815000D03*
%TO.P,REF\u002A\u002A,8*%
X53890000Y-31355000D03*
%TO.P,REF\u002A\u002A,9*%
%TO.N,+12V*%
X56430000Y-28815000D03*
%TO.P,REF\u002A\u002A,10*%
X56430000Y-31355000D03*
%TD*%
D13*
%TO.P,B,1*%
%TO.N,B1*%
X25000000Y-82070000D03*
D14*
%TO.P,B,2*%
%TO.N,B2*%
X25000000Y-84610000D03*
%TO.P,B,3*%
%TO.N,B3*%
X25000000Y-87150000D03*
%TO.P,B,4*%
%TO.N,B4*%
X25000000Y-89690000D03*
%TO.P,B,5*%
%TO.N,B5*%
X25000000Y-92230000D03*
%TO.P,B,6*%
%TO.N,B6*%
X25000000Y-94770000D03*
%TO.P,B,7*%
%TO.N,B7*%
X25000000Y-97310000D03*
%TO.P,B,8*%
%TO.N,B8*%
X25000000Y-99850000D03*
%TO.P,B,9*%
%TO.N,B9*%
X25000000Y-102390000D03*
%TO.P,B,10*%
%TO.N,B10*%
X25000000Y-104930000D03*
%TD*%
D13*
%TO.P,C,1*%
%TO.N,C1*%
X77000000Y-82070000D03*
D14*
%TO.P,C,2*%
%TO.N,C2*%
X77000000Y-84610000D03*
%TO.P,C,3*%
%TO.N,C3*%
X77000000Y-87150000D03*
%TO.P,C,4*%
%TO.N,C4*%
X77000000Y-89690000D03*
%TO.P,C,5*%
%TO.N,C5*%
X77000000Y-92230000D03*
%TO.P,C,6*%
%TO.N,C6*%
X77000000Y-94770000D03*
%TO.P,C,7*%
%TO.N,C7*%
X77000000Y-97310000D03*
%TO.P,C,8*%
%TO.N,C8*%
X77000000Y-99850000D03*
%TO.P,C,9*%
%TO.N,C9*%
X77000000Y-102390000D03*
%TO.P,C,10*%
%TO.N,C10*%
X77000000Y-104930000D03*
%TD*%
D13*
%TO.P,D,1*%
%TO.N,D1*%
X77000000Y-41430000D03*
D14*
%TO.P,D,2*%
%TO.N,D2*%
X77000000Y-43970000D03*
%TO.P,D,3*%
%TO.N,D3*%
X77000000Y-46510000D03*
%TO.P,D,4*%
%TO.N,D4*%
X77000000Y-49050000D03*
%TO.P,D,5*%
%TO.N,D5*%
X77000000Y-51590000D03*
%TO.P,D,6*%
%TO.N,D6*%
X77000000Y-54130000D03*
%TO.P,D,7*%
%TO.N,D7*%
X77000000Y-56670000D03*
%TO.P,D,8*%
%TO.N,D8*%
X77000000Y-59210000D03*
%TO.P,D,9*%
%TO.N,D9*%
X77000000Y-61750000D03*
%TO.P,D,10*%
%TO.N,D10*%
X77000000Y-64290000D03*
%TD*%
D13*
%TO.P,A,1*%
%TO.N,-12V*%
X25000000Y-41430000D03*
D14*
%TO.P,A,2*%
%TO.N,A2*%
X25000000Y-43970000D03*
%TO.P,A,3*%
%TO.N,A3*%
X25000000Y-46510000D03*
%TO.P,A,4*%
%TO.N,GND*%
X25000000Y-49050000D03*
%TO.P,A,5*%
%TO.N,+12V*%
X25000000Y-51590000D03*
%TO.P,A,6*%
%TO.N,A6*%
X25000000Y-54130000D03*
%TO.P,A,7*%
%TO.N,GND*%
X25000000Y-56670000D03*
%TO.P,A,8*%
%TO.N,A8*%
X25000000Y-59210000D03*
%TO.P,A,9*%
%TO.N,A9*%
X25000000Y-61750000D03*
%TO.P,A,10*%
%TO.N,A10*%
X25000000Y-64290000D03*
%TD*%
D15*
%TO.N,+12V*%
X56430000Y-31355000D02*
X56430000Y-41765000D01*
X34289314Y-57685000D02*
X33805000Y-57200685D01*
X56430000Y-41765000D02*
X40510000Y-57685000D01*
X33805000Y-57200685D02*
X33805000Y-53783000D01*
X40510000Y-57685000D02*
X34289314Y-57685000D01*
X33805000Y-53783000D02*
X36023000Y-51565000D01*
X56430000Y-28815000D02*
X56430000Y-31355000D01*
%TO.N,-12V*%
X46270000Y-28815000D02*
X46270000Y-31355000D01*
X36023000Y-41405000D02*
X36023000Y-36127000D01*
X36023000Y-36127000D02*
X40795000Y-31355000D01*
X40795000Y-31355000D02*
X46270000Y-31355000D01*
%TD*%
%TA.AperFunction,Conductor*%
%TO.N,GND*%
G36*
X53430507Y-31564844D02*
G01*
X53508239Y-31685798D01*
X53616900Y-31779952D01*
X53747685Y-31839680D01*
X53757466Y-31841086D01*
X53128625Y-32469925D01*
X53212421Y-32528599D01*
X53426507Y-32628429D01*
X53426516Y-32628433D01*
X53654673Y-32689567D01*
X53654684Y-32689569D01*
X53889998Y-32710157D01*
X53890002Y-32710157D01*
X54125315Y-32689569D01*
X54125326Y-32689567D01*
X54353483Y-32628433D01*
X54353492Y-32628429D01*
X54567578Y-32528600D01*
X54567582Y-32528598D01*
X54651373Y-32469926D01*
X54651373Y-32469925D01*
X54022533Y-31841086D01*
X54032315Y-31839680D01*
X54163100Y-31779952D01*
X54271761Y-31685798D01*
X54349493Y-31564844D01*
X54373076Y-31484524D01*
X55004925Y-32116373D01*
X55058119Y-32040405D01*
X55112696Y-31996781D01*
X55182195Y-31989588D01*
X55244549Y-32021110D01*
X55261269Y-32040405D01*
X55391505Y-32226401D01*
X55558599Y-32393495D01*
X55655384Y-32461265D01*
X55752165Y-32529032D01*
X55752167Y-32529033D01*
X55752170Y-32529035D01*
X55757898Y-32531706D01*
X55810339Y-32577872D01*
X55829500Y-32644090D01*
X55829500Y-41464903D01*
X55809815Y-41531942D01*
X55793181Y-41552584D01*
X40297584Y-57048181D01*
X40236261Y-57081666D01*
X40209903Y-57084500D01*
X34589413Y-57084500D01*
X34522374Y-57064815D01*
X34501731Y-57048181D01*
X34441818Y-56988267D01*
X34408334Y-56926943D01*
X34405500Y-56900586D01*
X34405500Y-54083096D01*
X34425185Y-54016057D01*
X34441814Y-53995419D01*
X35466835Y-52970398D01*
X35528156Y-52936915D01*
X35594776Y-52940799D01*
X35638950Y-52955965D01*
X35668215Y-52966012D01*
X35694511Y-52970400D01*
X35903653Y-53005300D01*
X35903654Y-53005300D01*
X36142346Y-53005300D01*
X36142347Y-53005300D01*
X36377784Y-52966012D01*
X36603545Y-52888509D01*
X36813469Y-52774903D01*
X37001832Y-52628295D01*
X37163494Y-52452682D01*
X37189191Y-52413350D01*
X37242337Y-52367993D01*
X37311568Y-52358569D01*
X37374904Y-52388071D01*
X37396809Y-52413350D01*
X37422506Y-52452682D01*
X37584168Y-52628295D01*
X37772531Y-52774903D01*
X37982455Y-52888509D01*
X38208216Y-52966012D01*
X38443653Y-53005300D01*
X38443654Y-53005300D01*
X38682346Y-53005300D01*
X38682347Y-53005300D01*
X38917784Y-52966012D01*
X39143545Y-52888509D01*
X39353469Y-52774903D01*
X39541832Y-52628295D01*
X39703494Y-52452682D01*
X39834047Y-52252856D01*
X39929929Y-52034267D01*
X39988525Y-51802878D01*
X39988526Y-51802869D01*
X40008236Y-51565005D01*
X40008236Y-51564994D01*
X39988526Y-51327130D01*
X39988524Y-51327118D01*
X39929929Y-51095732D01*
X39834048Y-50877147D01*
X39834047Y-50877144D01*
X39703494Y-50677318D01*
X39541832Y-50501705D01*
X39515898Y-50481520D01*
X39475086Y-50424810D01*
X39471411Y-50355037D01*
X39506042Y-50294354D01*
X39533044Y-50274612D01*
X39607191Y-50234485D01*
X39607197Y-50234481D01*
X39644158Y-50205713D01*
X39644159Y-50205711D01*
X38956600Y-49518152D01*
X38961592Y-49517435D01*
X39094470Y-49456752D01*
X39204869Y-49361090D01*
X39283845Y-49238201D01*
X39306522Y-49160969D01*
X39996942Y-49851389D01*
X40087608Y-49712614D01*
X40183454Y-49494104D01*
X40242030Y-49262796D01*
X40242032Y-49262788D01*
X40261735Y-49025006D01*
X40261735Y-49024993D01*
X40242032Y-48787211D01*
X40242030Y-48787203D01*
X40183454Y-48555895D01*
X40087607Y-48337382D01*
X39996942Y-48198609D01*
X39306521Y-48889029D01*
X39283845Y-48811799D01*
X39204869Y-48688910D01*
X39094470Y-48593248D01*
X38961592Y-48532565D01*
X38956599Y-48531847D01*
X39644158Y-47844286D01*
X39644158Y-47844284D01*
X39607203Y-47815521D01*
X39607197Y-47815517D01*
X39533043Y-47775387D01*
X39483453Y-47726167D01*
X39468345Y-47657950D01*
X39492516Y-47592395D01*
X39515893Y-47568483D01*
X39541832Y-47548295D01*
X39703494Y-47372682D01*
X39834047Y-47172856D01*
X39929929Y-46954267D01*
X39988525Y-46722878D01*
X39988526Y-46722869D01*
X40008236Y-46485005D01*
X40008236Y-46484994D01*
X39988526Y-46247130D01*
X39988524Y-46247118D01*
X39929929Y-46015732D01*
X39834048Y-45797147D01*
X39834047Y-45797144D01*
X39703494Y-45597318D01*
X39541832Y-45421705D01*
X39516327Y-45401854D01*
X39475515Y-45345144D01*
X39471842Y-45275371D01*
X39506473Y-45214688D01*
X39533472Y-45194948D01*
X39607469Y-45154903D01*
X39795832Y-45008295D01*
X39957494Y-44832682D01*
X40088047Y-44632856D01*
X40183929Y-44414267D01*
X40242525Y-44182878D01*
X40242526Y-44182869D01*
X40262236Y-43945005D01*
X40262236Y-43944994D01*
X40242526Y-43707130D01*
X40242524Y-43707118D01*
X40183929Y-43475732D01*
X40088048Y-43257147D01*
X40088047Y-43257144D01*
X39957494Y-43057318D01*
X39795832Y-42881705D01*
X39607469Y-42735097D01*
X39607462Y-42735092D01*
X39533473Y-42695051D01*
X39483882Y-42645832D01*
X39468775Y-42577615D01*
X39492946Y-42512059D01*
X39516327Y-42488145D01*
X39541832Y-42468295D01*
X39703494Y-42292682D01*
X39834047Y-42092856D01*
X39929929Y-41874267D01*
X39988525Y-41642878D01*
X39996007Y-41552584D01*
X40008236Y-41405005D01*
X40008236Y-41404994D01*
X39988526Y-41167130D01*
X39988524Y-41167118D01*
X39929929Y-40935732D01*
X39834048Y-40717147D01*
X39834047Y-40717144D01*
X39703494Y-40517318D01*
X39541832Y-40341705D01*
X39353469Y-40195097D01*
X39244641Y-40136202D01*
X39143546Y-40081491D01*
X39143541Y-40081489D01*
X38917786Y-40003988D01*
X38760826Y-39977796D01*
X38682347Y-39964700D01*
X38443653Y-39964700D01*
X38384793Y-39974522D01*
X38208213Y-40003988D01*
X37982458Y-40081489D01*
X37982453Y-40081491D01*
X37772529Y-40195098D01*
X37584169Y-40341704D01*
X37422508Y-40517315D01*
X37422506Y-40517317D01*
X37422506Y-40517318D01*
X37412830Y-40532129D01*
X37396808Y-40556652D01*
X37343661Y-40602008D01*
X37274430Y-40611431D01*
X37211094Y-40581928D01*
X37189192Y-40556652D01*
X37173174Y-40532135D01*
X37163494Y-40517318D01*
X37001832Y-40341705D01*
X36813469Y-40195097D01*
X36813466Y-40195095D01*
X36688481Y-40127455D01*
X36638891Y-40078235D01*
X36623500Y-40018401D01*
X36623500Y-36427097D01*
X36643185Y-36360058D01*
X36659819Y-36339416D01*
X41007416Y-31991819D01*
X41068739Y-31958334D01*
X41095097Y-31955500D01*
X44980909Y-31955500D01*
X45047948Y-31975185D01*
X45093292Y-32027097D01*
X45095965Y-32032830D01*
X45231505Y-32226401D01*
X45398599Y-32393495D01*
X45495384Y-32461265D01*
X45592165Y-32529032D01*
X45592167Y-32529033D01*
X45592170Y-32529035D01*
X45806337Y-32628903D01*
X46034592Y-32690063D01*
X46222918Y-32706539D01*
X46269999Y-32710659D01*
X46270000Y-32710659D01*
X46270001Y-32710659D01*
X46309234Y-32707226D01*
X46505408Y-32690063D01*
X46733663Y-32628903D01*
X46947830Y-32529035D01*
X47141401Y-32393495D01*
X47308495Y-32226401D01*
X47438732Y-32040403D01*
X47493307Y-31996780D01*
X47562805Y-31989586D01*
X47625160Y-32021109D01*
X47641880Y-32040405D01*
X47695073Y-32116373D01*
X48326923Y-31484523D01*
X48350507Y-31564844D01*
X48428239Y-31685798D01*
X48536900Y-31779952D01*
X48667685Y-31839680D01*
X48677466Y-31841086D01*
X48048625Y-32469925D01*
X48132421Y-32528599D01*
X48346507Y-32628429D01*
X48346516Y-32628433D01*
X48574673Y-32689567D01*
X48574684Y-32689569D01*
X48809998Y-32710157D01*
X48810002Y-32710157D01*
X49045315Y-32689569D01*
X49045326Y-32689567D01*
X49273483Y-32628433D01*
X49273492Y-32628429D01*
X49487578Y-32528600D01*
X49487582Y-32528598D01*
X49571373Y-32469926D01*
X49571373Y-32469925D01*
X48942533Y-31841086D01*
X48952315Y-31839680D01*
X49083100Y-31779952D01*
X49191761Y-31685798D01*
X49269493Y-31564844D01*
X49293076Y-31484524D01*
X49924925Y-32116373D01*
X49978425Y-32039968D01*
X50033002Y-31996344D01*
X50102501Y-31989151D01*
X50164855Y-32020673D01*
X50181576Y-32039969D01*
X50235073Y-32116372D01*
X50866922Y-31484523D01*
X50890507Y-31564844D01*
X50968239Y-31685798D01*
X51076900Y-31779952D01*
X51207685Y-31839680D01*
X51217466Y-31841086D01*
X50588625Y-32469925D01*
X50672421Y-32528599D01*
X50886507Y-32628429D01*
X50886516Y-32628433D01*
X51114673Y-32689567D01*
X51114684Y-32689569D01*
X51349998Y-32710157D01*
X51350002Y-32710157D01*
X51585315Y-32689569D01*
X51585326Y-32689567D01*
X51813483Y-32628433D01*
X51813492Y-32628429D01*
X52027578Y-32528600D01*
X52027582Y-32528598D01*
X52111373Y-32469926D01*
X52111373Y-32469925D01*
X51482533Y-31841086D01*
X51492315Y-31839680D01*
X51623100Y-31779952D01*
X51731761Y-31685798D01*
X51809493Y-31564844D01*
X51833076Y-31484524D01*
X52464925Y-32116373D01*
X52518425Y-32039968D01*
X52573002Y-31996344D01*
X52642501Y-31989151D01*
X52704855Y-32020673D01*
X52721576Y-32039969D01*
X52775073Y-32116372D01*
X53406922Y-31484523D01*
X53430507Y-31564844D01*
G37*
%TD.AperFunction*%
%TA.AperFunction,Conductor*%
G36*
X38350155Y-49238201D02*
G01*
X38429131Y-49361090D01*
X38539530Y-49456752D01*
X38672408Y-49517435D01*
X38677399Y-49518152D01*
X37971744Y-50223807D01*
X37971349Y-50225548D01*
X37922098Y-50274154D01*
X37878960Y-50297500D01*
X37772529Y-50355098D01*
X37584169Y-50501704D01*
X37422508Y-50677315D01*
X37396808Y-50716652D01*
X37343661Y-50762008D01*
X37274430Y-50771431D01*
X37211094Y-50741928D01*
X37189192Y-50716652D01*
X37163494Y-50677318D01*
X37001832Y-50501705D01*
X36975898Y-50481520D01*
X36935086Y-50424810D01*
X36931411Y-50355037D01*
X36966042Y-50294354D01*
X36993044Y-50274612D01*
X37067191Y-50234485D01*
X37067197Y-50234481D01*
X37104158Y-50205713D01*
X37104159Y-50205711D01*
X36416600Y-49518152D01*
X36421592Y-49517435D01*
X36554470Y-49456752D01*
X36664869Y-49361090D01*
X36743845Y-49238201D01*
X36766522Y-49160969D01*
X37456942Y-49851389D01*
X37469363Y-49850101D01*
X37496335Y-49827082D01*
X37565566Y-49817658D01*
X37628902Y-49847159D01*
X37632124Y-49850878D01*
X37637055Y-49851389D01*
X38327477Y-49160968D01*
X38350155Y-49238201D01*
G37*
%TD.AperFunction*%
%TA.AperFunction,Conductor*%
G36*
X37374904Y-47308071D02*
G01*
X37396809Y-47333350D01*
X37422506Y-47372682D01*
X37584168Y-47548295D01*
X37772531Y-47694903D01*
X37922098Y-47775845D01*
X37971687Y-47825064D01*
X37971996Y-47826443D01*
X38677400Y-48531847D01*
X38672408Y-48532565D01*
X38539530Y-48593248D01*
X38429131Y-48688910D01*
X38350155Y-48811799D01*
X38327477Y-48889031D01*
X37637055Y-48198609D01*
X37624632Y-48199897D01*
X37597658Y-48222918D01*
X37528427Y-48232339D01*
X37465092Y-48202836D01*
X37461872Y-48199120D01*
X37456942Y-48198609D01*
X36766521Y-48889029D01*
X36743845Y-48811799D01*
X36664869Y-48688910D01*
X36554470Y-48593248D01*
X36421592Y-48532565D01*
X36416599Y-48531847D01*
X37104158Y-47844286D01*
X37104158Y-47844284D01*
X37067203Y-47815521D01*
X37067197Y-47815517D01*
X36993043Y-47775387D01*
X36943453Y-47726167D01*
X36928345Y-47657950D01*
X36952516Y-47592395D01*
X36975893Y-47568483D01*
X37001832Y-47548295D01*
X37163494Y-47372682D01*
X37189191Y-47333350D01*
X37242337Y-47287993D01*
X37311568Y-47278569D01*
X37374904Y-47308071D01*
G37*
%TD.AperFunction*%
%TA.AperFunction,Conductor*%
G36*
X48350507Y-29024844D02*
G01*
X48428239Y-29145798D01*
X48536900Y-29239952D01*
X48667685Y-29299680D01*
X48677466Y-29301086D01*
X48048625Y-29929925D01*
X48125031Y-29983425D01*
X48168655Y-30038002D01*
X48175848Y-30107501D01*
X48144326Y-30169855D01*
X48125029Y-30186576D01*
X48048625Y-30240072D01*
X48677466Y-30868913D01*
X48667685Y-30870320D01*
X48536900Y-30930048D01*
X48428239Y-31024202D01*
X48350507Y-31145156D01*
X48326923Y-31225476D01*
X47695073Y-30593626D01*
X47641881Y-30669594D01*
X47587304Y-30713219D01*
X47517806Y-30720413D01*
X47455451Y-30688891D01*
X47438730Y-30669594D01*
X47308494Y-30483597D01*
X47141398Y-30316501D01*
X47140030Y-30315354D01*
X47139592Y-30314696D01*
X47137573Y-30312677D01*
X47137978Y-30312271D01*
X47101330Y-30257182D01*
X47100224Y-30187321D01*
X47137063Y-30127952D01*
X47180737Y-30102662D01*
X47189334Y-30099814D01*
X47338656Y-30007712D01*
X47462712Y-29883656D01*
X47554814Y-29734334D01*
X47578794Y-29661965D01*
X47618565Y-29604523D01*
X47683081Y-29577699D01*
X47693861Y-29577585D01*
X48326923Y-28944523D01*
X48350507Y-29024844D01*
G37*
%TD.AperFunction*%
%TA.AperFunction,Conductor*%
G36*
X50890507Y-29024844D02*
G01*
X50968239Y-29145798D01*
X51076900Y-29239952D01*
X51207685Y-29299680D01*
X51217466Y-29301086D01*
X50588625Y-29929925D01*
X50665031Y-29983425D01*
X50708655Y-30038002D01*
X50715848Y-30107501D01*
X50684326Y-30169855D01*
X50665029Y-30186576D01*
X50588625Y-30240072D01*
X51217466Y-30868913D01*
X51207685Y-30870320D01*
X51076900Y-30930048D01*
X50968239Y-31024202D01*
X50890507Y-31145156D01*
X50866923Y-31225476D01*
X50235072Y-30593625D01*
X50235072Y-30593626D01*
X50181574Y-30670030D01*
X50126998Y-30713655D01*
X50057499Y-30720849D01*
X49995144Y-30689326D01*
X49978424Y-30670030D01*
X49924925Y-30593626D01*
X49924925Y-30593625D01*
X49293076Y-31225475D01*
X49269493Y-31145156D01*
X49191761Y-31024202D01*
X49083100Y-30930048D01*
X48952315Y-30870320D01*
X48942533Y-30868913D01*
X49571373Y-30240073D01*
X49494969Y-30186576D01*
X49451344Y-30131999D01*
X49444150Y-30062501D01*
X49475672Y-30000146D01*
X49494968Y-29983425D01*
X49571373Y-29929925D01*
X48942533Y-29301086D01*
X48952315Y-29299680D01*
X49083100Y-29239952D01*
X49191761Y-29145798D01*
X49269493Y-29024844D01*
X49293076Y-28944524D01*
X49924925Y-29576373D01*
X49978425Y-29499968D01*
X50033002Y-29456344D01*
X50102501Y-29449151D01*
X50164855Y-29480673D01*
X50181576Y-29499969D01*
X50235073Y-29576372D01*
X50866922Y-28944523D01*
X50890507Y-29024844D01*
G37*
%TD.AperFunction*%
%TA.AperFunction,Conductor*%
G36*
X53430507Y-29024844D02*
G01*
X53508239Y-29145798D01*
X53616900Y-29239952D01*
X53747685Y-29299680D01*
X53757466Y-29301086D01*
X53128625Y-29929925D01*
X53205031Y-29983425D01*
X53248655Y-30038002D01*
X53255848Y-30107501D01*
X53224326Y-30169855D01*
X53205029Y-30186576D01*
X53128625Y-30240072D01*
X53757466Y-30868913D01*
X53747685Y-30870320D01*
X53616900Y-30930048D01*
X53508239Y-31024202D01*
X53430507Y-31145156D01*
X53406923Y-31225476D01*
X52775072Y-30593625D01*
X52775072Y-30593626D01*
X52721574Y-30670030D01*
X52666998Y-30713655D01*
X52597499Y-30720849D01*
X52535144Y-30689326D01*
X52518424Y-30670030D01*
X52464925Y-30593626D01*
X52464925Y-30593625D01*
X51833076Y-31225475D01*
X51809493Y-31145156D01*
X51731761Y-31024202D01*
X51623100Y-30930048D01*
X51492315Y-30870320D01*
X51482533Y-30868913D01*
X52111373Y-30240073D01*
X52034969Y-30186576D01*
X51991344Y-30131999D01*
X51984150Y-30062501D01*
X52015672Y-30000146D01*
X52034968Y-29983425D01*
X52111373Y-29929925D01*
X51482533Y-29301086D01*
X51492315Y-29299680D01*
X51623100Y-29239952D01*
X51731761Y-29145798D01*
X51809493Y-29024844D01*
X51833076Y-28944524D01*
X52464925Y-29576373D01*
X52518425Y-29499968D01*
X52573002Y-29456344D01*
X52642501Y-29449151D01*
X52704855Y-29480673D01*
X52721576Y-29499969D01*
X52775073Y-29576372D01*
X53406922Y-28944523D01*
X53430507Y-29024844D01*
G37*
%TD.AperFunction*%
%TA.AperFunction,Conductor*%
G36*
X55004925Y-29576373D02*
G01*
X55058119Y-29500405D01*
X55112696Y-29456781D01*
X55182195Y-29449588D01*
X55244549Y-29481110D01*
X55261269Y-29500405D01*
X55391505Y-29686401D01*
X55391506Y-29686402D01*
X55558597Y-29853493D01*
X55558603Y-29853498D01*
X55744158Y-29983425D01*
X55787783Y-30038002D01*
X55794977Y-30107500D01*
X55763454Y-30169855D01*
X55744158Y-30186575D01*
X55558597Y-30316505D01*
X55391505Y-30483597D01*
X55261269Y-30669595D01*
X55206692Y-30713220D01*
X55137194Y-30720414D01*
X55074839Y-30688891D01*
X55058119Y-30669595D01*
X55004925Y-30593626D01*
X55004925Y-30593625D01*
X54373076Y-31225475D01*
X54349493Y-31145156D01*
X54271761Y-31024202D01*
X54163100Y-30930048D01*
X54032315Y-30870320D01*
X54022533Y-30868913D01*
X54651373Y-30240073D01*
X54574969Y-30186576D01*
X54531344Y-30131999D01*
X54524150Y-30062501D01*
X54555672Y-30000146D01*
X54574968Y-29983425D01*
X54651373Y-29929925D01*
X54022533Y-29301086D01*
X54032315Y-29299680D01*
X54163100Y-29239952D01*
X54271761Y-29145798D01*
X54349493Y-29024844D01*
X54373076Y-28944524D01*
X55004925Y-29576373D01*
G37*
%TD.AperFunction*%
%TA.AperFunction,Conductor*%
G36*
X81442539Y-20520185D02*
G01*
X81488294Y-20572989D01*
X81499500Y-20624500D01*
X81499500Y-111375500D01*
X81479815Y-111442539D01*
X81427011Y-111488294D01*
X81375500Y-111499500D01*
X20624500Y-111499500D01*
X20557461Y-111479815D01*
X20511706Y-111427011D01*
X20500500Y-111375500D01*
X20500500Y-104930000D01*
X23644341Y-104930000D01*
X23664936Y-105165403D01*
X23664938Y-105165413D01*
X23726094Y-105393655D01*
X23726096Y-105393659D01*
X23726097Y-105393663D01*
X23825965Y-105607830D01*
X23825967Y-105607834D01*
X23934281Y-105762521D01*
X23961505Y-105801401D01*
X24128599Y-105968495D01*
X24225384Y-106036265D01*
X24322165Y-106104032D01*
X24322167Y-106104033D01*
X24322170Y-106104035D01*
X24536337Y-106203903D01*
X24764592Y-106265063D01*
X24952918Y-106281539D01*
X24999999Y-106285659D01*
X25000000Y-106285659D01*
X25000001Y-106285659D01*
X25039234Y-106282226D01*
X25235408Y-106265063D01*
X25463663Y-106203903D01*
X25677830Y-106104035D01*
X25871401Y-105968495D01*
X26038495Y-105801401D01*
X26174035Y-105607830D01*
X26273903Y-105393663D01*
X26335063Y-105165408D01*
X26355659Y-104930000D01*
X75644341Y-104930000D01*
X75664936Y-105165403D01*
X75664938Y-105165413D01*
X75726094Y-105393655D01*
X75726096Y-105393659D01*
X75726097Y-105393663D01*
X75825965Y-105607830D01*
X75825967Y-105607834D01*
X75934281Y-105762521D01*
X75961505Y-105801401D01*
X76128599Y-105968495D01*
X76225384Y-106036265D01*
X76322165Y-106104032D01*
X76322167Y-106104033D01*
X76322170Y-106104035D01*
X76536337Y-106203903D01*
X76764592Y-106265063D01*
X76952918Y-106281539D01*
X76999999Y-106285659D01*
X77000000Y-106285659D01*
X77000001Y-106285659D01*
X77039234Y-106282226D01*
X77235408Y-106265063D01*
X77463663Y-106203903D01*
X77677830Y-106104035D01*
X77871401Y-105968495D01*
X78038495Y-105801401D01*
X78174035Y-105607830D01*
X78273903Y-105393663D01*
X78335063Y-105165408D01*
X78355659Y-104930000D01*
X78335063Y-104694592D01*
X78273903Y-104466337D01*
X78174035Y-104252171D01*
X78141362Y-104205508D01*
X78038494Y-104058597D01*
X77871402Y-103891506D01*
X77871396Y-103891501D01*
X77685842Y-103761575D01*
X77642217Y-103706998D01*
X77635023Y-103637500D01*
X77666546Y-103575145D01*
X77685842Y-103558425D01*
X77746885Y-103515682D01*
X77871401Y-103428495D01*
X78038495Y-103261401D01*
X78174035Y-103067830D01*
X78273903Y-102853663D01*
X78335063Y-102625408D01*
X78355659Y-102390000D01*
X78335063Y-102154592D01*
X78273903Y-101926337D01*
X78174035Y-101712171D01*
X78166433Y-101701313D01*
X78038494Y-101518597D01*
X77871402Y-101351506D01*
X77871396Y-101351501D01*
X77685842Y-101221575D01*
X77642217Y-101166998D01*
X77635023Y-101097500D01*
X77666546Y-101035145D01*
X77685842Y-101018425D01*
X77746885Y-100975682D01*
X77871401Y-100888495D01*
X78038495Y-100721401D01*
X78174035Y-100527830D01*
X78273903Y-100313663D01*
X78335063Y-100085408D01*
X78355659Y-99850000D01*
X78335063Y-99614592D01*
X78273903Y-99386337D01*
X78174035Y-99172171D01*
X78066427Y-99018489D01*
X78038494Y-98978597D01*
X77871402Y-98811506D01*
X77871396Y-98811501D01*
X77685842Y-98681575D01*
X77642217Y-98626998D01*
X77635023Y-98557500D01*
X77666546Y-98495145D01*
X77685842Y-98478425D01*
X77708026Y-98462891D01*
X77871401Y-98348495D01*
X78038495Y-98181401D01*
X78174035Y-97987830D01*
X78273903Y-97773663D01*
X78335063Y-97545408D01*
X78355659Y-97310000D01*
X78335063Y-97074592D01*
X78273903Y-96846337D01*
X78174035Y-96632171D01*
X78038495Y-96438599D01*
X78038494Y-96438597D01*
X77871402Y-96271506D01*
X77871396Y-96271501D01*
X77685842Y-96141575D01*
X77642217Y-96086998D01*
X77635023Y-96017500D01*
X77666546Y-95955145D01*
X77685842Y-95938425D01*
X77708026Y-95922891D01*
X77871401Y-95808495D01*
X78038495Y-95641401D01*
X78174035Y-95447830D01*
X78273903Y-95233663D01*
X78335063Y-95005408D01*
X78355659Y-94770000D01*
X78335063Y-94534592D01*
X78273903Y-94306337D01*
X78174035Y-94092171D01*
X78038495Y-93898599D01*
X78038494Y-93898597D01*
X77871402Y-93731506D01*
X77871396Y-93731501D01*
X77685842Y-93601575D01*
X77642217Y-93546998D01*
X77635023Y-93477500D01*
X77666546Y-93415145D01*
X77685842Y-93398425D01*
X77708026Y-93382891D01*
X77871401Y-93268495D01*
X78038495Y-93101401D01*
X78174035Y-92907830D01*
X78273903Y-92693663D01*
X78335063Y-92465408D01*
X78355659Y-92230000D01*
X78335063Y-91994592D01*
X78273903Y-91766337D01*
X78174035Y-91552171D01*
X78038495Y-91358599D01*
X78038494Y-91358597D01*
X77871402Y-91191506D01*
X77871396Y-91191501D01*
X77685842Y-91061575D01*
X77642217Y-91006998D01*
X77635023Y-90937500D01*
X77666546Y-90875145D01*
X77685842Y-90858425D01*
X77708026Y-90842891D01*
X77871401Y-90728495D01*
X78038495Y-90561401D01*
X78174035Y-90367830D01*
X78273903Y-90153663D01*
X78335063Y-89925408D01*
X78355659Y-89690000D01*
X78335063Y-89454592D01*
X78273903Y-89226337D01*
X78174035Y-89012171D01*
X78038495Y-88818599D01*
X78038494Y-88818597D01*
X77871402Y-88651506D01*
X77871396Y-88651501D01*
X77685842Y-88521575D01*
X77642217Y-88466998D01*
X77635023Y-88397500D01*
X77666546Y-88335145D01*
X77685842Y-88318425D01*
X77708026Y-88302891D01*
X77871401Y-88188495D01*
X78038495Y-88021401D01*
X78174035Y-87827830D01*
X78273903Y-87613663D01*
X78335063Y-87385408D01*
X78355659Y-87150000D01*
X78335063Y-86914592D01*
X78273903Y-86686337D01*
X78174035Y-86472171D01*
X78038495Y-86278599D01*
X78038494Y-86278597D01*
X77871402Y-86111506D01*
X77871396Y-86111501D01*
X77685842Y-85981575D01*
X77642217Y-85926998D01*
X77635023Y-85857500D01*
X77666546Y-85795145D01*
X77685842Y-85778425D01*
X77708026Y-85762891D01*
X77871401Y-85648495D01*
X78038495Y-85481401D01*
X78174035Y-85287830D01*
X78273903Y-85073663D01*
X78335063Y-84845408D01*
X78355659Y-84610000D01*
X78335063Y-84374592D01*
X78273903Y-84146337D01*
X78174035Y-83932171D01*
X78038495Y-83738599D01*
X77916567Y-83616671D01*
X77883084Y-83555351D01*
X77888068Y-83485659D01*
X77929939Y-83429725D01*
X77960915Y-83412810D01*
X78092331Y-83363796D01*
X78207546Y-83277546D01*
X78293796Y-83162331D01*
X78344091Y-83027483D01*
X78350500Y-82967873D01*
X78350499Y-81172128D01*
X78344091Y-81112517D01*
X78293796Y-80977669D01*
X78293795Y-80977668D01*
X78293793Y-80977664D01*
X78207547Y-80862455D01*
X78207544Y-80862452D01*
X78092335Y-80776206D01*
X78092328Y-80776202D01*
X77957482Y-80725908D01*
X77957483Y-80725908D01*
X77897883Y-80719501D01*
X77897881Y-80719500D01*
X77897873Y-80719500D01*
X77897864Y-80719500D01*
X76102129Y-80719500D01*
X76102123Y-80719501D01*
X76042516Y-80725908D01*
X75907671Y-80776202D01*
X75907664Y-80776206D01*
X75792455Y-80862452D01*
X75792452Y-80862455D01*
X75706206Y-80977664D01*
X75706202Y-80977671D01*
X75655908Y-81112517D01*
X75649501Y-81172116D01*
X75649501Y-81172123D01*
X75649500Y-81172135D01*
X75649500Y-82967870D01*
X75649501Y-82967876D01*
X75655908Y-83027483D01*
X75706202Y-83162328D01*
X75706206Y-83162335D01*
X75792452Y-83277544D01*
X75792455Y-83277547D01*
X75907664Y-83363793D01*
X75907671Y-83363797D01*
X76039081Y-83412810D01*
X76095015Y-83454681D01*
X76119432Y-83520145D01*
X76104580Y-83588418D01*
X76083430Y-83616673D01*
X75961503Y-83738600D01*
X75825965Y-83932169D01*
X75825964Y-83932171D01*
X75726098Y-84146335D01*
X75726094Y-84146344D01*
X75664938Y-84374586D01*
X75664936Y-84374596D01*
X75644341Y-84609999D01*
X75644341Y-84610000D01*
X75664936Y-84845403D01*
X75664938Y-84845413D01*
X75726094Y-85073655D01*
X75726096Y-85073659D01*
X75726097Y-85073663D01*
X75825965Y-85287830D01*
X75825967Y-85287834D01*
X75961501Y-85481395D01*
X75961506Y-85481402D01*
X76128597Y-85648493D01*
X76128603Y-85648498D01*
X76314158Y-85778425D01*
X76357783Y-85833002D01*
X76364977Y-85902500D01*
X76333454Y-85964855D01*
X76314158Y-85981575D01*
X76128597Y-86111505D01*
X75961505Y-86278597D01*
X75825965Y-86472169D01*
X75825964Y-86472171D01*
X75726098Y-86686335D01*
X75726094Y-86686344D01*
X75664938Y-86914586D01*
X75664936Y-86914596D01*
X75644341Y-87149999D01*
X75644341Y-87150000D01*
X75664936Y-87385403D01*
X75664938Y-87385413D01*
X75726094Y-87613655D01*
X75726096Y-87613659D01*
X75726097Y-87613663D01*
X75825965Y-87827830D01*
X75825967Y-87827834D01*
X75961501Y-88021395D01*
X75961506Y-88021402D01*
X76128597Y-88188493D01*
X76128603Y-88188498D01*
X76314158Y-88318425D01*
X76357783Y-88373002D01*
X76364977Y-88442500D01*
X76333454Y-88504855D01*
X76314158Y-88521575D01*
X76128597Y-88651505D01*
X75961505Y-88818597D01*
X75825965Y-89012169D01*
X75825964Y-89012171D01*
X75726098Y-89226335D01*
X75726094Y-89226344D01*
X75664938Y-89454586D01*
X75664936Y-89454596D01*
X75644341Y-89689999D01*
X75644341Y-89690000D01*
X75664936Y-89925403D01*
X75664938Y-89925413D01*
X75726094Y-90153655D01*
X75726096Y-90153659D01*
X75726097Y-90153663D01*
X75825965Y-90367830D01*
X75825967Y-90367834D01*
X75961501Y-90561395D01*
X75961506Y-90561402D01*
X76128597Y-90728493D01*
X76128603Y-90728498D01*
X76314158Y-90858425D01*
X76357783Y-90913002D01*
X76364977Y-90982500D01*
X76333454Y-91044855D01*
X76314158Y-91061575D01*
X76128597Y-91191505D01*
X75961505Y-91358597D01*
X75825965Y-91552169D01*
X75825964Y-91552171D01*
X75726098Y-91766335D01*
X75726094Y-91766344D01*
X75664938Y-91994586D01*
X75664936Y-91994596D01*
X75644341Y-92229999D01*
X75644341Y-92230000D01*
X75664936Y-92465403D01*
X75664938Y-92465413D01*
X75726094Y-92693655D01*
X75726096Y-92693659D01*
X75726097Y-92693663D01*
X75825965Y-92907830D01*
X75825967Y-92907834D01*
X75961501Y-93101395D01*
X75961506Y-93101402D01*
X76128597Y-93268493D01*
X76128603Y-93268498D01*
X76314158Y-93398425D01*
X76357783Y-93453002D01*
X76364977Y-93522500D01*
X76333454Y-93584855D01*
X76314158Y-93601575D01*
X76128597Y-93731505D01*
X75961505Y-93898597D01*
X75825965Y-94092169D01*
X75825964Y-94092171D01*
X75726098Y-94306335D01*
X75726094Y-94306344D01*
X75664938Y-94534586D01*
X75664936Y-94534596D01*
X75644341Y-94769999D01*
X75644341Y-94770000D01*
X75664936Y-95005403D01*
X75664938Y-95005413D01*
X75726094Y-95233655D01*
X75726096Y-95233659D01*
X75726097Y-95233663D01*
X75825965Y-95447830D01*
X75825967Y-95447834D01*
X75961501Y-95641395D01*
X75961506Y-95641402D01*
X76128597Y-95808493D01*
X76128603Y-95808498D01*
X76314158Y-95938425D01*
X76357783Y-95993002D01*
X76364977Y-96062500D01*
X76333454Y-96124855D01*
X76314158Y-96141575D01*
X76128597Y-96271505D01*
X75961505Y-96438597D01*
X75825965Y-96632169D01*
X75825964Y-96632171D01*
X75726098Y-96846335D01*
X75726094Y-96846344D01*
X75664938Y-97074586D01*
X75664936Y-97074596D01*
X75644341Y-97309999D01*
X75644341Y-97310000D01*
X75664936Y-97545403D01*
X75664938Y-97545413D01*
X75726094Y-97773655D01*
X75726096Y-97773659D01*
X75726097Y-97773663D01*
X75825965Y-97987830D01*
X75825967Y-97987834D01*
X75961501Y-98181395D01*
X75961506Y-98181402D01*
X76128597Y-98348493D01*
X76128603Y-98348498D01*
X76314158Y-98478425D01*
X76357783Y-98533002D01*
X76364977Y-98602500D01*
X76333454Y-98664855D01*
X76314158Y-98681575D01*
X76128597Y-98811505D01*
X75961505Y-98978597D01*
X75825965Y-99172169D01*
X75825964Y-99172171D01*
X75726098Y-99386335D01*
X75726094Y-99386344D01*
X75664938Y-99614586D01*
X75664936Y-99614596D01*
X75644341Y-99849999D01*
X75644341Y-99850000D01*
X75664936Y-100085403D01*
X75664938Y-100085413D01*
X75726094Y-100313655D01*
X75726096Y-100313659D01*
X75726097Y-100313663D01*
X75825965Y-100527830D01*
X75825967Y-100527834D01*
X75961501Y-100721395D01*
X75961506Y-100721402D01*
X76128597Y-100888493D01*
X76128603Y-100888498D01*
X76314158Y-101018425D01*
X76357783Y-101073002D01*
X76364977Y-101142500D01*
X76333454Y-101204855D01*
X76314158Y-101221575D01*
X76128597Y-101351505D01*
X75961505Y-101518597D01*
X75825965Y-101712169D01*
X75825964Y-101712171D01*
X75726098Y-101926335D01*
X75726094Y-101926344D01*
X75664938Y-102154586D01*
X75664936Y-102154596D01*
X75644341Y-102389999D01*
X75644341Y-102390000D01*
X75664936Y-102625403D01*
X75664938Y-102625413D01*
X75726094Y-102853655D01*
X75726096Y-102853659D01*
X75726097Y-102853663D01*
X75825965Y-103067830D01*
X75825967Y-103067834D01*
X75961501Y-103261395D01*
X75961506Y-103261402D01*
X76128597Y-103428493D01*
X76128603Y-103428498D01*
X76314158Y-103558425D01*
X76357783Y-103613002D01*
X76364977Y-103682500D01*
X76333454Y-103744855D01*
X76314158Y-103761575D01*
X76128597Y-103891505D01*
X75961505Y-104058597D01*
X75825965Y-104252169D01*
X75825964Y-104252171D01*
X75726098Y-104466335D01*
X75726094Y-104466344D01*
X75664938Y-104694586D01*
X75664936Y-104694596D01*
X75644341Y-104929999D01*
X75644341Y-104930000D01*
X26355659Y-104930000D01*
X26335063Y-104694592D01*
X26273903Y-104466337D01*
X26174035Y-104252171D01*
X26141362Y-104205508D01*
X26038494Y-104058597D01*
X25871402Y-103891506D01*
X25871396Y-103891501D01*
X25685842Y-103761575D01*
X25642217Y-103706998D01*
X25635023Y-103637500D01*
X25666546Y-103575145D01*
X25685842Y-103558425D01*
X25746885Y-103515682D01*
X25871401Y-103428495D01*
X26038495Y-103261401D01*
X26174035Y-103067830D01*
X26273903Y-102853663D01*
X26334367Y-102628005D01*
X31894764Y-102628005D01*
X31914473Y-102865869D01*
X31914475Y-102865881D01*
X31973070Y-103097267D01*
X32045067Y-103261402D01*
X32068953Y-103315856D01*
X32199506Y-103515682D01*
X32361168Y-103691295D01*
X32549531Y-103837903D01*
X32759455Y-103951509D01*
X32985216Y-104029012D01*
X33220653Y-104068300D01*
X33220654Y-104068300D01*
X33459346Y-104068300D01*
X33459347Y-104068300D01*
X33694784Y-104029012D01*
X33920545Y-103951509D01*
X34130469Y-103837903D01*
X34318832Y-103691295D01*
X34427028Y-103573761D01*
X34486911Y-103537773D01*
X34556749Y-103539872D01*
X34614366Y-103579396D01*
X34622064Y-103589924D01*
X34688293Y-103691295D01*
X34739506Y-103769682D01*
X34901168Y-103945295D01*
X35089531Y-104091903D01*
X35299455Y-104205509D01*
X35525216Y-104283012D01*
X35760653Y-104322300D01*
X35760654Y-104322300D01*
X35999346Y-104322300D01*
X35999347Y-104322300D01*
X36234784Y-104283012D01*
X36460545Y-104205509D01*
X36670469Y-104091903D01*
X36858832Y-103945295D01*
X37020494Y-103769682D01*
X37137935Y-103589924D01*
X37191081Y-103544568D01*
X37260313Y-103535144D01*
X37323649Y-103564646D01*
X37332972Y-103573762D01*
X37347850Y-103589924D01*
X37433071Y-103682500D01*
X37441168Y-103691295D01*
X37629531Y-103837903D01*
X37839455Y-103951509D01*
X38065216Y-104029012D01*
X38300653Y-104068300D01*
X38300654Y-104068300D01*
X38539346Y-104068300D01*
X38539347Y-104068300D01*
X38774784Y-104029012D01*
X39000545Y-103951509D01*
X39210469Y-103837903D01*
X39398832Y-103691295D01*
X39507028Y-103573761D01*
X39566911Y-103537773D01*
X39636749Y-103539872D01*
X39694366Y-103579396D01*
X39702064Y-103589924D01*
X39768293Y-103691295D01*
X39819506Y-103769682D01*
X39981168Y-103945295D01*
X40169531Y-104091903D01*
X40379455Y-104205509D01*
X40605216Y-104283012D01*
X40840653Y-104322300D01*
X40840654Y-104322300D01*
X41079346Y-104322300D01*
X41079347Y-104322300D01*
X41314784Y-104283012D01*
X41540545Y-104205509D01*
X41750469Y-104091903D01*
X41938832Y-103945295D01*
X42100494Y-103769682D01*
X42217935Y-103589924D01*
X42271081Y-103544568D01*
X42340313Y-103535144D01*
X42403649Y-103564646D01*
X42412972Y-103573762D01*
X42427850Y-103589924D01*
X42513071Y-103682500D01*
X42521168Y-103691295D01*
X42709531Y-103837903D01*
X42919455Y-103951509D01*
X43145216Y-104029012D01*
X43380653Y-104068300D01*
X43380654Y-104068300D01*
X43619346Y-104068300D01*
X43619347Y-104068300D01*
X43854784Y-104029012D01*
X44080545Y-103951509D01*
X44290469Y-103837903D01*
X44478832Y-103691295D01*
X44640494Y-103515682D01*
X44771047Y-103315856D01*
X44866929Y-103097267D01*
X44925525Y-102865878D01*
X44945236Y-102628005D01*
X57894764Y-102628005D01*
X57914473Y-102865869D01*
X57914475Y-102865881D01*
X57973070Y-103097267D01*
X58045067Y-103261402D01*
X58068953Y-103315856D01*
X58199506Y-103515682D01*
X58361168Y-103691295D01*
X58549531Y-103837903D01*
X58759455Y-103951509D01*
X58985216Y-104029012D01*
X59220653Y-104068300D01*
X59220654Y-104068300D01*
X59459346Y-104068300D01*
X59459347Y-104068300D01*
X59694784Y-104029012D01*
X59920545Y-103951509D01*
X60130469Y-103837903D01*
X60318832Y-103691295D01*
X60427028Y-103573761D01*
X60486911Y-103537773D01*
X60556749Y-103539872D01*
X60614366Y-103579396D01*
X60622064Y-103589924D01*
X60688293Y-103691295D01*
X60739506Y-103769682D01*
X60901168Y-103945295D01*
X61089531Y-104091903D01*
X61299455Y-104205509D01*
X61525216Y-104283012D01*
X61760653Y-104322300D01*
X61760654Y-104322300D01*
X61999346Y-104322300D01*
X61999347Y-104322300D01*
X62234784Y-104283012D01*
X62460545Y-104205509D01*
X62670469Y-104091903D01*
X62858832Y-103945295D01*
X63020494Y-103769682D01*
X63137935Y-103589924D01*
X63191081Y-103544568D01*
X63260313Y-103535144D01*
X63323649Y-103564646D01*
X63332972Y-103573762D01*
X63347850Y-103589924D01*
X63433071Y-103682500D01*
X63441168Y-103691295D01*
X63629531Y-103837903D01*
X63839455Y-103951509D01*
X64065216Y-104029012D01*
X64300653Y-104068300D01*
X64300654Y-104068300D01*
X64539346Y-104068300D01*
X64539347Y-104068300D01*
X64774784Y-104029012D01*
X65000545Y-103951509D01*
X65210469Y-103837903D01*
X65398832Y-103691295D01*
X65507028Y-103573761D01*
X65566911Y-103537773D01*
X65636749Y-103539872D01*
X65694366Y-103579396D01*
X65702064Y-103589924D01*
X65768293Y-103691295D01*
X65819506Y-103769682D01*
X65981168Y-103945295D01*
X66169531Y-104091903D01*
X66379455Y-104205509D01*
X66605216Y-104283012D01*
X66840653Y-104322300D01*
X66840654Y-104322300D01*
X67079346Y-104322300D01*
X67079347Y-104322300D01*
X67314784Y-104283012D01*
X67540545Y-104205509D01*
X67750469Y-104091903D01*
X67938832Y-103945295D01*
X68100494Y-103769682D01*
X68217935Y-103589924D01*
X68271081Y-103544568D01*
X68340313Y-103535144D01*
X68403649Y-103564646D01*
X68412972Y-103573762D01*
X68427850Y-103589924D01*
X68513071Y-103682500D01*
X68521168Y-103691295D01*
X68709531Y-103837903D01*
X68919455Y-103951509D01*
X69145216Y-104029012D01*
X69380653Y-104068300D01*
X69380654Y-104068300D01*
X69619346Y-104068300D01*
X69619347Y-104068300D01*
X69854784Y-104029012D01*
X70080545Y-103951509D01*
X70290469Y-103837903D01*
X70478832Y-103691295D01*
X70640494Y-103515682D01*
X70771047Y-103315856D01*
X70866929Y-103097267D01*
X70925525Y-102865878D01*
X70945236Y-102628000D01*
X70945021Y-102625408D01*
X70925526Y-102390130D01*
X70925524Y-102390118D01*
X70866929Y-102158732D01*
X70794810Y-101994318D01*
X70771047Y-101940144D01*
X70640494Y-101740318D01*
X70478832Y-101564705D01*
X70338978Y-101455853D01*
X70298166Y-101399143D01*
X70294491Y-101329370D01*
X70329122Y-101268687D01*
X70338979Y-101260146D01*
X70478832Y-101151295D01*
X70640494Y-100975682D01*
X70771047Y-100775856D01*
X70866929Y-100557267D01*
X70925525Y-100325878D01*
X70945236Y-100088000D01*
X70945021Y-100085408D01*
X70925526Y-99850130D01*
X70925524Y-99850118D01*
X70866929Y-99618732D01*
X70794810Y-99454318D01*
X70771047Y-99400144D01*
X70640494Y-99200318D01*
X70478832Y-99024705D01*
X70290469Y-98878097D01*
X70194152Y-98825972D01*
X70080546Y-98764491D01*
X70080541Y-98764489D01*
X69854786Y-98686988D01*
X69697826Y-98660796D01*
X69619347Y-98647700D01*
X69380653Y-98647700D01*
X69321793Y-98657522D01*
X69145213Y-98686988D01*
X68919458Y-98764489D01*
X68919453Y-98764491D01*
X68709529Y-98878098D01*
X68521169Y-99024704D01*
X68359502Y-99200321D01*
X68242063Y-99380075D01*
X68188917Y-99425432D01*
X68119685Y-99434855D01*
X68056350Y-99405353D01*
X68047025Y-99396235D01*
X68037913Y-99386337D01*
X67938832Y-99278705D01*
X67750469Y-99132097D01*
X67654152Y-99079972D01*
X67540546Y-99018491D01*
X67540541Y-99018489D01*
X67314786Y-98940988D01*
X67157826Y-98914796D01*
X67079347Y-98901700D01*
X66840653Y-98901700D01*
X66781793Y-98911522D01*
X66605213Y-98940988D01*
X66379458Y-99018489D01*
X66379453Y-99018491D01*
X66169529Y-99132098D01*
X66081881Y-99200317D01*
X65981168Y-99278705D01*
X65882087Y-99386337D01*
X65872974Y-99396236D01*
X65813087Y-99432226D01*
X65743249Y-99430126D01*
X65685633Y-99390602D01*
X65677935Y-99380075D01*
X65560493Y-99200317D01*
X65534581Y-99172169D01*
X65398832Y-99024705D01*
X65210469Y-98878097D01*
X65114152Y-98825972D01*
X65000546Y-98764491D01*
X65000541Y-98764489D01*
X64774786Y-98686988D01*
X64617826Y-98660796D01*
X64539347Y-98647700D01*
X64300653Y-98647700D01*
X64241793Y-98657522D01*
X64065213Y-98686988D01*
X63839458Y-98764489D01*
X63839453Y-98764491D01*
X63629529Y-98878098D01*
X63441169Y-99024704D01*
X63279502Y-99200321D01*
X63162063Y-99380075D01*
X63108917Y-99425432D01*
X63039685Y-99434855D01*
X62976350Y-99405353D01*
X62967025Y-99396235D01*
X62957913Y-99386337D01*
X62858832Y-99278705D01*
X62670469Y-99132097D01*
X62574152Y-99079972D01*
X62460546Y-99018491D01*
X62460541Y-99018489D01*
X62234786Y-98940988D01*
X62077826Y-98914796D01*
X61999347Y-98901700D01*
X61760653Y-98901700D01*
X61701793Y-98911522D01*
X61525213Y-98940988D01*
X61299458Y-99018489D01*
X61299453Y-99018491D01*
X61089529Y-99132098D01*
X61001881Y-99200317D01*
X60901168Y-99278705D01*
X60802087Y-99386337D01*
X60792974Y-99396236D01*
X60733087Y-99432226D01*
X60663249Y-99430126D01*
X60605633Y-99390602D01*
X60597935Y-99380075D01*
X60480493Y-99200317D01*
X60454581Y-99172169D01*
X60318832Y-99024705D01*
X60130469Y-98878097D01*
X60034152Y-98825972D01*
X59920546Y-98764491D01*
X59920541Y-98764489D01*
X59694786Y-98686988D01*
X59537826Y-98660796D01*
X59459347Y-98647700D01*
X59220653Y-98647700D01*
X59161793Y-98657522D01*
X58985213Y-98686988D01*
X58759458Y-98764489D01*
X58759453Y-98764491D01*
X58549529Y-98878098D01*
X58361169Y-99024704D01*
X58199506Y-99200317D01*
X58068951Y-99400147D01*
X57973070Y-99618732D01*
X57914475Y-99850118D01*
X57914473Y-99850130D01*
X57894764Y-100087994D01*
X57894764Y-100088005D01*
X57914473Y-100325869D01*
X57914475Y-100325881D01*
X57973070Y-100557267D01*
X58045067Y-100721402D01*
X58068953Y-100775856D01*
X58199506Y-100975682D01*
X58361168Y-101151295D01*
X58361171Y-101151297D01*
X58361174Y-101151300D01*
X58501020Y-101260147D01*
X58541833Y-101316857D01*
X58545508Y-101386630D01*
X58510876Y-101447313D01*
X58501020Y-101455853D01*
X58361174Y-101564699D01*
X58361171Y-101564702D01*
X58199506Y-101740317D01*
X58068951Y-101940147D01*
X57973070Y-102158732D01*
X57914475Y-102390118D01*
X57914473Y-102390130D01*
X57894764Y-102627994D01*
X57894764Y-102628005D01*
X44945236Y-102628005D01*
X44945236Y-102628000D01*
X44945021Y-102625408D01*
X44925526Y-102390130D01*
X44925524Y-102390118D01*
X44866929Y-102158732D01*
X44794810Y-101994318D01*
X44771047Y-101940144D01*
X44640494Y-101740318D01*
X44478832Y-101564705D01*
X44338978Y-101455853D01*
X44298166Y-101399143D01*
X44294491Y-101329370D01*
X44329122Y-101268687D01*
X44338979Y-101260146D01*
X44478832Y-101151295D01*
X44640494Y-100975682D01*
X44771047Y-100775856D01*
X44866929Y-100557267D01*
X44925525Y-100325878D01*
X44945236Y-100088000D01*
X44945021Y-100085408D01*
X44925526Y-99850130D01*
X44925524Y-99850118D01*
X44866929Y-99618732D01*
X44794810Y-99454318D01*
X44771047Y-99400144D01*
X44640494Y-99200318D01*
X44478832Y-99024705D01*
X44290469Y-98878097D01*
X44194152Y-98825972D01*
X44080546Y-98764491D01*
X44080541Y-98764489D01*
X43854786Y-98686988D01*
X43697826Y-98660796D01*
X43619347Y-98647700D01*
X43380653Y-98647700D01*
X43321793Y-98657522D01*
X43145213Y-98686988D01*
X42919458Y-98764489D01*
X42919453Y-98764491D01*
X42709529Y-98878098D01*
X42521169Y-99024704D01*
X42359502Y-99200321D01*
X42242063Y-99380075D01*
X42188917Y-99425432D01*
X42119685Y-99434855D01*
X42056350Y-99405353D01*
X42047025Y-99396235D01*
X42037913Y-99386337D01*
X41938832Y-99278705D01*
X41750469Y-99132097D01*
X41654152Y-99079972D01*
X41540546Y-99018491D01*
X41540541Y-99018489D01*
X41314786Y-98940988D01*
X41157826Y-98914796D01*
X41079347Y-98901700D01*
X40840653Y-98901700D01*
X40781793Y-98911522D01*
X40605213Y-98940988D01*
X40379458Y-99018489D01*
X40379453Y-99018491D01*
X40169529Y-99132098D01*
X40081881Y-99200317D01*
X39981168Y-99278705D01*
X39882087Y-99386337D01*
X39872974Y-99396236D01*
X39813087Y-99432226D01*
X39743249Y-99430126D01*
X39685633Y-99390602D01*
X39677935Y-99380075D01*
X39560493Y-99200317D01*
X39534581Y-99172169D01*
X39398832Y-99024705D01*
X39210469Y-98878097D01*
X39114152Y-98825972D01*
X39000546Y-98764491D01*
X39000541Y-98764489D01*
X38774786Y-98686988D01*
X38617826Y-98660796D01*
X38539347Y-98647700D01*
X38300653Y-98647700D01*
X38241793Y-98657522D01*
X38065213Y-98686988D01*
X37839458Y-98764489D01*
X37839453Y-98764491D01*
X37629529Y-98878098D01*
X37441169Y-99024704D01*
X37279502Y-99200321D01*
X37162063Y-99380075D01*
X37108917Y-99425432D01*
X37039685Y-99434855D01*
X36976350Y-99405353D01*
X36967025Y-99396235D01*
X36957913Y-99386337D01*
X36858832Y-99278705D01*
X36670469Y-99132097D01*
X36574152Y-99079972D01*
X36460546Y-99018491D01*
X36460541Y-99018489D01*
X36234786Y-98940988D01*
X36077826Y-98914796D01*
X35999347Y-98901700D01*
X35760653Y-98901700D01*
X35701793Y-98911522D01*
X35525213Y-98940988D01*
X35299458Y-99018489D01*
X35299453Y-99018491D01*
X35089529Y-99132098D01*
X35001881Y-99200317D01*
X34901168Y-99278705D01*
X34802087Y-99386337D01*
X34792974Y-99396236D01*
X34733087Y-99432226D01*
X34663249Y-99430126D01*
X34605633Y-99390602D01*
X34597935Y-99380075D01*
X34480493Y-99200317D01*
X34454581Y-99172169D01*
X34318832Y-99024705D01*
X34130469Y-98878097D01*
X34034152Y-98825972D01*
X33920546Y-98764491D01*
X33920541Y-98764489D01*
X33694786Y-98686988D01*
X33537826Y-98660796D01*
X33459347Y-98647700D01*
X33220653Y-98647700D01*
X33161793Y-98657522D01*
X32985213Y-98686988D01*
X32759458Y-98764489D01*
X32759453Y-98764491D01*
X32549529Y-98878098D01*
X32361169Y-99024704D01*
X32199506Y-99200317D01*
X32068951Y-99400147D01*
X31973070Y-99618732D01*
X31914475Y-99850118D01*
X31914473Y-99850130D01*
X31894764Y-100087994D01*
X31894764Y-100088005D01*
X31914473Y-100325869D01*
X31914475Y-100325881D01*
X31973070Y-100557267D01*
X32045067Y-100721402D01*
X32068953Y-100775856D01*
X32199506Y-100975682D01*
X32361168Y-101151295D01*
X32361171Y-101151297D01*
X32361174Y-101151300D01*
X32501020Y-101260147D01*
X32541833Y-101316857D01*
X32545508Y-101386630D01*
X32510876Y-101447313D01*
X32501020Y-101455853D01*
X32361174Y-101564699D01*
X32361171Y-101564702D01*
X32199506Y-101740317D01*
X32068951Y-101940147D01*
X31973070Y-102158732D01*
X31914475Y-102390118D01*
X31914473Y-102390130D01*
X31894764Y-102627994D01*
X31894764Y-102628005D01*
X26334367Y-102628005D01*
X26335063Y-102625408D01*
X26355659Y-102390000D01*
X26335063Y-102154592D01*
X26273903Y-101926337D01*
X26174035Y-101712171D01*
X26166433Y-101701313D01*
X26038494Y-101518597D01*
X25871402Y-101351506D01*
X25871396Y-101351501D01*
X25685842Y-101221575D01*
X25642217Y-101166998D01*
X25635023Y-101097500D01*
X25666546Y-101035145D01*
X25685842Y-101018425D01*
X25746885Y-100975682D01*
X25871401Y-100888495D01*
X26038495Y-100721401D01*
X26174035Y-100527830D01*
X26273903Y-100313663D01*
X26335063Y-100085408D01*
X26355659Y-99850000D01*
X26335063Y-99614592D01*
X26273903Y-99386337D01*
X26174035Y-99172171D01*
X26066427Y-99018489D01*
X26038494Y-98978597D01*
X25871402Y-98811506D01*
X25871396Y-98811501D01*
X25685842Y-98681575D01*
X25642217Y-98626998D01*
X25635023Y-98557500D01*
X25666546Y-98495145D01*
X25685842Y-98478425D01*
X25708026Y-98462891D01*
X25871401Y-98348495D01*
X26038495Y-98181401D01*
X26174035Y-97987830D01*
X26273903Y-97773663D01*
X26335063Y-97545408D01*
X26355659Y-97310000D01*
X26335063Y-97074592D01*
X26273903Y-96846337D01*
X26174035Y-96632171D01*
X26038495Y-96438599D01*
X26038494Y-96438597D01*
X25871402Y-96271506D01*
X25871396Y-96271501D01*
X25685842Y-96141575D01*
X25642217Y-96086998D01*
X25635023Y-96017500D01*
X25666546Y-95955145D01*
X25685842Y-95938425D01*
X25708026Y-95922891D01*
X25871401Y-95808495D01*
X26038495Y-95641401D01*
X26174035Y-95447830D01*
X26273903Y-95233663D01*
X26335063Y-95005408D01*
X26355659Y-94770000D01*
X26335063Y-94534592D01*
X26273903Y-94306337D01*
X26174035Y-94092171D01*
X26038495Y-93898599D01*
X26038494Y-93898597D01*
X25871402Y-93731506D01*
X25871396Y-93731501D01*
X25685842Y-93601575D01*
X25642217Y-93546998D01*
X25635023Y-93477500D01*
X25666546Y-93415145D01*
X25685842Y-93398425D01*
X25708026Y-93382891D01*
X25871401Y-93268495D01*
X26038495Y-93101401D01*
X26174035Y-92907830D01*
X26273903Y-92693663D01*
X26335063Y-92465408D01*
X26355659Y-92230000D01*
X26335063Y-91994592D01*
X26273903Y-91766337D01*
X26174035Y-91552171D01*
X26038495Y-91358599D01*
X26038494Y-91358597D01*
X25871402Y-91191506D01*
X25871396Y-91191501D01*
X25685842Y-91061575D01*
X25642217Y-91006998D01*
X25635023Y-90937500D01*
X25666546Y-90875145D01*
X25685842Y-90858425D01*
X25708026Y-90842891D01*
X25871401Y-90728495D01*
X26038495Y-90561401D01*
X26174035Y-90367830D01*
X26273903Y-90153663D01*
X26335063Y-89925408D01*
X26355659Y-89690000D01*
X26335063Y-89454592D01*
X26273903Y-89226337D01*
X26174035Y-89012171D01*
X26038495Y-88818599D01*
X26038494Y-88818597D01*
X25871402Y-88651506D01*
X25871396Y-88651501D01*
X25685842Y-88521575D01*
X25642217Y-88466998D01*
X25635023Y-88397500D01*
X25666546Y-88335145D01*
X25685842Y-88318425D01*
X25708026Y-88302891D01*
X25871401Y-88188495D01*
X26038495Y-88021401D01*
X26174035Y-87827830D01*
X26273903Y-87613663D01*
X26335063Y-87385408D01*
X26355659Y-87150000D01*
X26335063Y-86914592D01*
X26273903Y-86686337D01*
X26174035Y-86472171D01*
X26038495Y-86278599D01*
X26038494Y-86278597D01*
X25871402Y-86111506D01*
X25871396Y-86111501D01*
X25685842Y-85981575D01*
X25642217Y-85926998D01*
X25635023Y-85857500D01*
X25666546Y-85795145D01*
X25685842Y-85778425D01*
X25708026Y-85762891D01*
X25871401Y-85648495D01*
X26038495Y-85481401D01*
X26174035Y-85287830D01*
X26273903Y-85073663D01*
X26335063Y-84845408D01*
X26355659Y-84610000D01*
X26335063Y-84374592D01*
X26273903Y-84146337D01*
X26174035Y-83932171D01*
X26038495Y-83738599D01*
X25916567Y-83616671D01*
X25883084Y-83555351D01*
X25888068Y-83485659D01*
X25929939Y-83429725D01*
X25960915Y-83412810D01*
X26092331Y-83363796D01*
X26207546Y-83277546D01*
X26293796Y-83162331D01*
X26344091Y-83027483D01*
X26350500Y-82967873D01*
X26350499Y-81172128D01*
X26344091Y-81112517D01*
X26293796Y-80977669D01*
X26293795Y-80977668D01*
X26293793Y-80977664D01*
X26207547Y-80862455D01*
X26207544Y-80862452D01*
X26092335Y-80776206D01*
X26092328Y-80776202D01*
X25957482Y-80725908D01*
X25957483Y-80725908D01*
X25897883Y-80719501D01*
X25897881Y-80719500D01*
X25897873Y-80719500D01*
X25897864Y-80719500D01*
X24102129Y-80719500D01*
X24102123Y-80719501D01*
X24042516Y-80725908D01*
X23907671Y-80776202D01*
X23907664Y-80776206D01*
X23792455Y-80862452D01*
X23792452Y-80862455D01*
X23706206Y-80977664D01*
X23706202Y-80977671D01*
X23655908Y-81112517D01*
X23649501Y-81172116D01*
X23649501Y-81172123D01*
X23649500Y-81172135D01*
X23649500Y-82967870D01*
X23649501Y-82967876D01*
X23655908Y-83027483D01*
X23706202Y-83162328D01*
X23706206Y-83162335D01*
X23792452Y-83277544D01*
X23792455Y-83277547D01*
X23907664Y-83363793D01*
X23907671Y-83363797D01*
X24039081Y-83412810D01*
X24095015Y-83454681D01*
X24119432Y-83520145D01*
X24104580Y-83588418D01*
X24083430Y-83616673D01*
X23961503Y-83738600D01*
X23825965Y-83932169D01*
X23825964Y-83932171D01*
X23726098Y-84146335D01*
X23726094Y-84146344D01*
X23664938Y-84374586D01*
X23664936Y-84374596D01*
X23644341Y-84609999D01*
X23644341Y-84610000D01*
X23664936Y-84845403D01*
X23664938Y-84845413D01*
X23726094Y-85073655D01*
X23726096Y-85073659D01*
X23726097Y-85073663D01*
X23825965Y-85287830D01*
X23825967Y-85287834D01*
X23961501Y-85481395D01*
X23961506Y-85481402D01*
X24128597Y-85648493D01*
X24128603Y-85648498D01*
X24314158Y-85778425D01*
X24357783Y-85833002D01*
X24364977Y-85902500D01*
X24333454Y-85964855D01*
X24314158Y-85981575D01*
X24128597Y-86111505D01*
X23961505Y-86278597D01*
X23825965Y-86472169D01*
X23825964Y-86472171D01*
X23726098Y-86686335D01*
X23726094Y-86686344D01*
X23664938Y-86914586D01*
X23664936Y-86914596D01*
X23644341Y-87149999D01*
X23644341Y-87150000D01*
X23664936Y-87385403D01*
X23664938Y-87385413D01*
X23726094Y-87613655D01*
X23726096Y-87613659D01*
X23726097Y-87613663D01*
X23825965Y-87827830D01*
X23825967Y-87827834D01*
X23961501Y-88021395D01*
X23961506Y-88021402D01*
X24128597Y-88188493D01*
X24128603Y-88188498D01*
X24314158Y-88318425D01*
X24357783Y-88373002D01*
X24364977Y-88442500D01*
X24333454Y-88504855D01*
X24314158Y-88521575D01*
X24128597Y-88651505D01*
X23961505Y-88818597D01*
X23825965Y-89012169D01*
X23825964Y-89012171D01*
X23726098Y-89226335D01*
X23726094Y-89226344D01*
X23664938Y-89454586D01*
X23664936Y-89454596D01*
X23644341Y-89689999D01*
X23644341Y-89690000D01*
X23664936Y-89925403D01*
X23664938Y-89925413D01*
X23726094Y-90153655D01*
X23726096Y-90153659D01*
X23726097Y-90153663D01*
X23825965Y-90367830D01*
X23825967Y-90367834D01*
X23961501Y-90561395D01*
X23961506Y-90561402D01*
X24128597Y-90728493D01*
X24128603Y-90728498D01*
X24314158Y-90858425D01*
X24357783Y-90913002D01*
X24364977Y-90982500D01*
X24333454Y-91044855D01*
X24314158Y-91061575D01*
X24128597Y-91191505D01*
X23961505Y-91358597D01*
X23825965Y-91552169D01*
X23825964Y-91552171D01*
X23726098Y-91766335D01*
X23726094Y-91766344D01*
X23664938Y-91994586D01*
X23664936Y-91994596D01*
X23644341Y-92229999D01*
X23644341Y-92230000D01*
X23664936Y-92465403D01*
X23664938Y-92465413D01*
X23726094Y-92693655D01*
X23726096Y-92693659D01*
X23726097Y-92693663D01*
X23825965Y-92907830D01*
X23825967Y-92907834D01*
X23961501Y-93101395D01*
X23961506Y-93101402D01*
X24128597Y-93268493D01*
X24128603Y-93268498D01*
X24314158Y-93398425D01*
X24357783Y-93453002D01*
X24364977Y-93522500D01*
X24333454Y-93584855D01*
X24314158Y-93601575D01*
X24128597Y-93731505D01*
X23961505Y-93898597D01*
X23825965Y-94092169D01*
X23825964Y-94092171D01*
X23726098Y-94306335D01*
X23726094Y-94306344D01*
X23664938Y-94534586D01*
X23664936Y-94534596D01*
X23644341Y-94769999D01*
X23644341Y-94770000D01*
X23664936Y-95005403D01*
X23664938Y-95005413D01*
X23726094Y-95233655D01*
X23726096Y-95233659D01*
X23726097Y-95233663D01*
X23825965Y-95447830D01*
X23825967Y-95447834D01*
X23961501Y-95641395D01*
X23961506Y-95641402D01*
X24128597Y-95808493D01*
X24128603Y-95808498D01*
X24314158Y-95938425D01*
X24357783Y-95993002D01*
X24364977Y-96062500D01*
X24333454Y-96124855D01*
X24314158Y-96141575D01*
X24128597Y-96271505D01*
X23961505Y-96438597D01*
X23825965Y-96632169D01*
X23825964Y-96632171D01*
X23726098Y-96846335D01*
X23726094Y-96846344D01*
X23664938Y-97074586D01*
X23664936Y-97074596D01*
X23644341Y-97309999D01*
X23644341Y-97310000D01*
X23664936Y-97545403D01*
X23664938Y-97545413D01*
X23726094Y-97773655D01*
X23726096Y-97773659D01*
X23726097Y-97773663D01*
X23825965Y-97987830D01*
X23825967Y-97987834D01*
X23961501Y-98181395D01*
X23961506Y-98181402D01*
X24128597Y-98348493D01*
X24128603Y-98348498D01*
X24314158Y-98478425D01*
X24357783Y-98533002D01*
X24364977Y-98602500D01*
X24333454Y-98664855D01*
X24314158Y-98681575D01*
X24128597Y-98811505D01*
X23961505Y-98978597D01*
X23825965Y-99172169D01*
X23825964Y-99172171D01*
X23726098Y-99386335D01*
X23726094Y-99386344D01*
X23664938Y-99614586D01*
X23664936Y-99614596D01*
X23644341Y-99849999D01*
X23644341Y-99850000D01*
X23664936Y-100085403D01*
X23664938Y-100085413D01*
X23726094Y-100313655D01*
X23726096Y-100313659D01*
X23726097Y-100313663D01*
X23825965Y-100527830D01*
X23825967Y-100527834D01*
X23961501Y-100721395D01*
X23961506Y-100721402D01*
X24128597Y-100888493D01*
X24128603Y-100888498D01*
X24314158Y-101018425D01*
X24357783Y-101073002D01*
X24364977Y-101142500D01*
X24333454Y-101204855D01*
X24314158Y-101221575D01*
X24128597Y-101351505D01*
X23961505Y-101518597D01*
X23825965Y-101712169D01*
X23825964Y-101712171D01*
X23726098Y-101926335D01*
X23726094Y-101926344D01*
X23664938Y-102154586D01*
X23664936Y-102154596D01*
X23644341Y-102389999D01*
X23644341Y-102390000D01*
X23664936Y-102625403D01*
X23664938Y-102625413D01*
X23726094Y-102853655D01*
X23726096Y-102853659D01*
X23726097Y-102853663D01*
X23825965Y-103067830D01*
X23825967Y-103067834D01*
X23961501Y-103261395D01*
X23961506Y-103261402D01*
X24128597Y-103428493D01*
X24128603Y-103428498D01*
X24314158Y-103558425D01*
X24357783Y-103613002D01*
X24364977Y-103682500D01*
X24333454Y-103744855D01*
X24314158Y-103761575D01*
X24128597Y-103891505D01*
X23961505Y-104058597D01*
X23825965Y-104252169D01*
X23825964Y-104252171D01*
X23726098Y-104466335D01*
X23726094Y-104466344D01*
X23664938Y-104694586D01*
X23664936Y-104694596D01*
X23644341Y-104929999D01*
X23644341Y-104930000D01*
X20500500Y-104930000D01*
X20500500Y-64290000D01*
X23644341Y-64290000D01*
X23664936Y-64525403D01*
X23664938Y-64525413D01*
X23726094Y-64753655D01*
X23726096Y-64753659D01*
X23726097Y-64753663D01*
X23825965Y-64967830D01*
X23825967Y-64967834D01*
X23934281Y-65122521D01*
X23961505Y-65161401D01*
X24128599Y-65328495D01*
X24225384Y-65396265D01*
X24322165Y-65464032D01*
X24322167Y-65464033D01*
X24322170Y-65464035D01*
X24536337Y-65563903D01*
X24764592Y-65625063D01*
X24952918Y-65641539D01*
X24999999Y-65645659D01*
X25000000Y-65645659D01*
X25000001Y-65645659D01*
X25039234Y-65642226D01*
X25235408Y-65625063D01*
X25463663Y-65563903D01*
X25677830Y-65464035D01*
X25871401Y-65328495D01*
X26038495Y-65161401D01*
X26174035Y-64967830D01*
X26273903Y-64753663D01*
X26335063Y-64525408D01*
X26355659Y-64290000D01*
X75644341Y-64290000D01*
X75664936Y-64525403D01*
X75664938Y-64525413D01*
X75726094Y-64753655D01*
X75726096Y-64753659D01*
X75726097Y-64753663D01*
X75825965Y-64967830D01*
X75825967Y-64967834D01*
X75934281Y-65122521D01*
X75961505Y-65161401D01*
X76128599Y-65328495D01*
X76225384Y-65396265D01*
X76322165Y-65464032D01*
X76322167Y-65464033D01*
X76322170Y-65464035D01*
X76536337Y-65563903D01*
X76764592Y-65625063D01*
X76952918Y-65641539D01*
X76999999Y-65645659D01*
X77000000Y-65645659D01*
X77000001Y-65645659D01*
X77039234Y-65642226D01*
X77235408Y-65625063D01*
X77463663Y-65563903D01*
X77677830Y-65464035D01*
X77871401Y-65328495D01*
X78038495Y-65161401D01*
X78174035Y-64967830D01*
X78273903Y-64753663D01*
X78335063Y-64525408D01*
X78355659Y-64290000D01*
X78335063Y-64054592D01*
X78273903Y-63826337D01*
X78174035Y-63612171D01*
X78038495Y-63418599D01*
X78038494Y-63418597D01*
X77871402Y-63251506D01*
X77871396Y-63251501D01*
X77685842Y-63121575D01*
X77642217Y-63066998D01*
X77635023Y-62997500D01*
X77666546Y-62935145D01*
X77685842Y-62918425D01*
X77708026Y-62902891D01*
X77871401Y-62788495D01*
X78038495Y-62621401D01*
X78174035Y-62427830D01*
X78273903Y-62213663D01*
X78335063Y-61985408D01*
X78355659Y-61750000D01*
X78335063Y-61514592D01*
X78273903Y-61286337D01*
X78174035Y-61072171D01*
X78038495Y-60878599D01*
X78038494Y-60878597D01*
X77871402Y-60711506D01*
X77871396Y-60711501D01*
X77685842Y-60581575D01*
X77642217Y-60526998D01*
X77635023Y-60457500D01*
X77666546Y-60395145D01*
X77685842Y-60378425D01*
X77708026Y-60362891D01*
X77871401Y-60248495D01*
X78038495Y-60081401D01*
X78174035Y-59887830D01*
X78273903Y-59673663D01*
X78335063Y-59445408D01*
X78355659Y-59210000D01*
X78335063Y-58974592D01*
X78273903Y-58746337D01*
X78174035Y-58532171D01*
X78038495Y-58338599D01*
X78038494Y-58338597D01*
X77871401Y-58171505D01*
X77871396Y-58171501D01*
X77685842Y-58041575D01*
X77642217Y-57986998D01*
X77635023Y-57917500D01*
X77666546Y-57855145D01*
X77685842Y-57838425D01*
X77708026Y-57822891D01*
X77871401Y-57708495D01*
X78038495Y-57541401D01*
X78174035Y-57347830D01*
X78273903Y-57133663D01*
X78335063Y-56905408D01*
X78355659Y-56670000D01*
X78335063Y-56434592D01*
X78273903Y-56206337D01*
X78174035Y-55992171D01*
X78038495Y-55798599D01*
X78038494Y-55798597D01*
X77871402Y-55631506D01*
X77871396Y-55631501D01*
X77685842Y-55501575D01*
X77642217Y-55446998D01*
X77635023Y-55377500D01*
X77666546Y-55315145D01*
X77685842Y-55298425D01*
X77708026Y-55282891D01*
X77871401Y-55168495D01*
X78038495Y-55001401D01*
X78174035Y-54807830D01*
X78273903Y-54593663D01*
X78335063Y-54365408D01*
X78355659Y-54130000D01*
X78335063Y-53894592D01*
X78273903Y-53666337D01*
X78174035Y-53452171D01*
X78127853Y-53386215D01*
X78038494Y-53258597D01*
X77871402Y-53091506D01*
X77871396Y-53091501D01*
X77685842Y-52961575D01*
X77642217Y-52906998D01*
X77635023Y-52837500D01*
X77666546Y-52775145D01*
X77685842Y-52758425D01*
X77708026Y-52742891D01*
X77871401Y-52628495D01*
X78038495Y-52461401D01*
X78174035Y-52267830D01*
X78273903Y-52053663D01*
X78335063Y-51825408D01*
X78355659Y-51590000D01*
X78335063Y-51354592D01*
X78273903Y-51126337D01*
X78174035Y-50912171D01*
X78075489Y-50771431D01*
X78038494Y-50718597D01*
X77871402Y-50551506D01*
X77871396Y-50551501D01*
X77685842Y-50421575D01*
X77642217Y-50366998D01*
X77635023Y-50297500D01*
X77666546Y-50235145D01*
X77685842Y-50218425D01*
X77763586Y-50163988D01*
X77871401Y-50088495D01*
X78038495Y-49921401D01*
X78174035Y-49727830D01*
X78273903Y-49513663D01*
X78335063Y-49285408D01*
X78355659Y-49050000D01*
X78335063Y-48814592D01*
X78273903Y-48586337D01*
X78174035Y-48372171D01*
X78149677Y-48337383D01*
X78038494Y-48178597D01*
X77871402Y-48011506D01*
X77871396Y-48011501D01*
X77685842Y-47881575D01*
X77642217Y-47826998D01*
X77635023Y-47757500D01*
X77666546Y-47695145D01*
X77685842Y-47678425D01*
X77842865Y-47568476D01*
X77871401Y-47548495D01*
X78038495Y-47381401D01*
X78174035Y-47187830D01*
X78273903Y-46973663D01*
X78335063Y-46745408D01*
X78355659Y-46510000D01*
X78335063Y-46274592D01*
X78273903Y-46046337D01*
X78174035Y-45832171D01*
X78075489Y-45691431D01*
X78038494Y-45638597D01*
X77871402Y-45471506D01*
X77871396Y-45471501D01*
X77685842Y-45341575D01*
X77642217Y-45286998D01*
X77635023Y-45217500D01*
X77666546Y-45155145D01*
X77685842Y-45138425D01*
X77843342Y-45028142D01*
X77871401Y-45008495D01*
X78038495Y-44841401D01*
X78174035Y-44647830D01*
X78273903Y-44433663D01*
X78335063Y-44205408D01*
X78355659Y-43970000D01*
X78335063Y-43734592D01*
X78273903Y-43506337D01*
X78174035Y-43292171D01*
X78075488Y-43151431D01*
X78038496Y-43098600D01*
X77997211Y-43057315D01*
X77916567Y-42976671D01*
X77883084Y-42915351D01*
X77888068Y-42845659D01*
X77929939Y-42789725D01*
X77960915Y-42772810D01*
X78092331Y-42723796D01*
X78207546Y-42637546D01*
X78293796Y-42522331D01*
X78344091Y-42387483D01*
X78350500Y-42327873D01*
X78350499Y-40532128D01*
X78344091Y-40472517D01*
X78295301Y-40341705D01*
X78293797Y-40337671D01*
X78293793Y-40337664D01*
X78207547Y-40222455D01*
X78207544Y-40222452D01*
X78092335Y-40136206D01*
X78092328Y-40136202D01*
X77957482Y-40085908D01*
X77957483Y-40085908D01*
X77897883Y-40079501D01*
X77897881Y-40079500D01*
X77897873Y-40079500D01*
X77897864Y-40079500D01*
X76102129Y-40079500D01*
X76102123Y-40079501D01*
X76042516Y-40085908D01*
X75907671Y-40136202D01*
X75907664Y-40136206D01*
X75792455Y-40222452D01*
X75792452Y-40222455D01*
X75706206Y-40337664D01*
X75706202Y-40337671D01*
X75655908Y-40472517D01*
X75651092Y-40517317D01*
X75649501Y-40532123D01*
X75649500Y-40532135D01*
X75649500Y-42327870D01*
X75649501Y-42327876D01*
X75655908Y-42387483D01*
X75706202Y-42522328D01*
X75706206Y-42522335D01*
X75792452Y-42637544D01*
X75792455Y-42637547D01*
X75907664Y-42723793D01*
X75907671Y-42723797D01*
X76039081Y-42772810D01*
X76095015Y-42814681D01*
X76119432Y-42880145D01*
X76104580Y-42948418D01*
X76083430Y-42976673D01*
X75961503Y-43098600D01*
X75825965Y-43292169D01*
X75825964Y-43292171D01*
X75726098Y-43506335D01*
X75726094Y-43506344D01*
X75664938Y-43734586D01*
X75664936Y-43734596D01*
X75644341Y-43969999D01*
X75644341Y-43970000D01*
X75664936Y-44205403D01*
X75664938Y-44205413D01*
X75726094Y-44433655D01*
X75726096Y-44433659D01*
X75726097Y-44433663D01*
X75819730Y-44634458D01*
X75825965Y-44647830D01*
X75825967Y-44647834D01*
X75961501Y-44841395D01*
X75961506Y-44841402D01*
X76128597Y-45008493D01*
X76128603Y-45008498D01*
X76314158Y-45138425D01*
X76357783Y-45193002D01*
X76364977Y-45262500D01*
X76333454Y-45324855D01*
X76314158Y-45341575D01*
X76128597Y-45471505D01*
X75961505Y-45638597D01*
X75825965Y-45832169D01*
X75825964Y-45832171D01*
X75726098Y-46046335D01*
X75726094Y-46046344D01*
X75664938Y-46274586D01*
X75664936Y-46274596D01*
X75644341Y-46509999D01*
X75644341Y-46510000D01*
X75664936Y-46745403D01*
X75664938Y-46745413D01*
X75726094Y-46973655D01*
X75726096Y-46973659D01*
X75726097Y-46973663D01*
X75819730Y-47174458D01*
X75825965Y-47187830D01*
X75825967Y-47187834D01*
X75961501Y-47381395D01*
X75961506Y-47381402D01*
X76128597Y-47548493D01*
X76128603Y-47548498D01*
X76314158Y-47678425D01*
X76357783Y-47733002D01*
X76364977Y-47802500D01*
X76333454Y-47864855D01*
X76314158Y-47881575D01*
X76128597Y-48011505D01*
X75961505Y-48178597D01*
X75825965Y-48372169D01*
X75825964Y-48372171D01*
X75726098Y-48586335D01*
X75726094Y-48586344D01*
X75664938Y-48814586D01*
X75664936Y-48814596D01*
X75644341Y-49049999D01*
X75644341Y-49050000D01*
X75664936Y-49285403D01*
X75664938Y-49285413D01*
X75726094Y-49513655D01*
X75726096Y-49513659D01*
X75726097Y-49513663D01*
X75819730Y-49714458D01*
X75825965Y-49727830D01*
X75825967Y-49727834D01*
X75961501Y-49921395D01*
X75961506Y-49921402D01*
X76128597Y-50088493D01*
X76128603Y-50088498D01*
X76314158Y-50218425D01*
X76357783Y-50273002D01*
X76364977Y-50342500D01*
X76333454Y-50404855D01*
X76314158Y-50421575D01*
X76128597Y-50551505D01*
X75961505Y-50718597D01*
X75825965Y-50912169D01*
X75825964Y-50912171D01*
X75726098Y-51126335D01*
X75726094Y-51126344D01*
X75664938Y-51354586D01*
X75664936Y-51354596D01*
X75644341Y-51589999D01*
X75644341Y-51590000D01*
X75664936Y-51825403D01*
X75664938Y-51825413D01*
X75726094Y-52053655D01*
X75726096Y-52053659D01*
X75726097Y-52053663D01*
X75819730Y-52254458D01*
X75825965Y-52267830D01*
X75825967Y-52267834D01*
X75961501Y-52461395D01*
X75961506Y-52461402D01*
X76128597Y-52628493D01*
X76128603Y-52628498D01*
X76314158Y-52758425D01*
X76357783Y-52813002D01*
X76364977Y-52882500D01*
X76333454Y-52944855D01*
X76314158Y-52961575D01*
X76128597Y-53091505D01*
X75961505Y-53258597D01*
X75825965Y-53452169D01*
X75825964Y-53452171D01*
X75726098Y-53666335D01*
X75726094Y-53666344D01*
X75664938Y-53894586D01*
X75664936Y-53894596D01*
X75644341Y-54129999D01*
X75644341Y-54130000D01*
X75664936Y-54365403D01*
X75664938Y-54365413D01*
X75726094Y-54593655D01*
X75726096Y-54593659D01*
X75726097Y-54593663D01*
X75825965Y-54807830D01*
X75825967Y-54807834D01*
X75961501Y-55001395D01*
X75961506Y-55001402D01*
X76128597Y-55168493D01*
X76128603Y-55168498D01*
X76314158Y-55298425D01*
X76357783Y-55353002D01*
X76364977Y-55422500D01*
X76333454Y-55484855D01*
X76314158Y-55501575D01*
X76128597Y-55631505D01*
X75961505Y-55798597D01*
X75825965Y-55992169D01*
X75825964Y-55992171D01*
X75726098Y-56206335D01*
X75726094Y-56206344D01*
X75664938Y-56434586D01*
X75664936Y-56434596D01*
X75644341Y-56669999D01*
X75644341Y-56670000D01*
X75664936Y-56905403D01*
X75664938Y-56905413D01*
X75726094Y-57133655D01*
X75726096Y-57133659D01*
X75726097Y-57133663D01*
X75825847Y-57347578D01*
X75825965Y-57347830D01*
X75825967Y-57347834D01*
X75961501Y-57541395D01*
X75961506Y-57541402D01*
X76128597Y-57708493D01*
X76128603Y-57708498D01*
X76314158Y-57838425D01*
X76357783Y-57893002D01*
X76364977Y-57962500D01*
X76333454Y-58024855D01*
X76314158Y-58041575D01*
X76128597Y-58171505D01*
X75961505Y-58338597D01*
X75825965Y-58532169D01*
X75825964Y-58532171D01*
X75726098Y-58746335D01*
X75726094Y-58746344D01*
X75664938Y-58974586D01*
X75664936Y-58974596D01*
X75644341Y-59209999D01*
X75644341Y-59210000D01*
X75664936Y-59445403D01*
X75664938Y-59445413D01*
X75726094Y-59673655D01*
X75726096Y-59673659D01*
X75726097Y-59673663D01*
X75825965Y-59887830D01*
X75825967Y-59887834D01*
X75961501Y-60081395D01*
X75961506Y-60081402D01*
X76128597Y-60248493D01*
X76128603Y-60248498D01*
X76314158Y-60378425D01*
X76357783Y-60433002D01*
X76364977Y-60502500D01*
X76333454Y-60564855D01*
X76314158Y-60581575D01*
X76128597Y-60711505D01*
X75961505Y-60878597D01*
X75825965Y-61072169D01*
X75825964Y-61072171D01*
X75726098Y-61286335D01*
X75726094Y-61286344D01*
X75664938Y-61514586D01*
X75664936Y-61514596D01*
X75644341Y-61749999D01*
X75644341Y-61750000D01*
X75664936Y-61985403D01*
X75664938Y-61985413D01*
X75726094Y-62213655D01*
X75726096Y-62213659D01*
X75726097Y-62213663D01*
X75825965Y-62427830D01*
X75825967Y-62427834D01*
X75961501Y-62621395D01*
X75961506Y-62621402D01*
X76128597Y-62788493D01*
X76128603Y-62788498D01*
X76314158Y-62918425D01*
X76357783Y-62973002D01*
X76364977Y-63042500D01*
X76333454Y-63104855D01*
X76314158Y-63121575D01*
X76128597Y-63251505D01*
X75961505Y-63418597D01*
X75825965Y-63612169D01*
X75825964Y-63612171D01*
X75726098Y-63826335D01*
X75726094Y-63826344D01*
X75664938Y-64054586D01*
X75664936Y-64054596D01*
X75644341Y-64289999D01*
X75644341Y-64290000D01*
X26355659Y-64290000D01*
X26335063Y-64054592D01*
X26273903Y-63826337D01*
X26174035Y-63612171D01*
X26038495Y-63418599D01*
X26038494Y-63418597D01*
X25871402Y-63251506D01*
X25871396Y-63251501D01*
X25685842Y-63121575D01*
X25642217Y-63066998D01*
X25635023Y-62997500D01*
X25666546Y-62935145D01*
X25685842Y-62918425D01*
X25708026Y-62902891D01*
X25871401Y-62788495D01*
X26038495Y-62621401D01*
X26174035Y-62427830D01*
X26273903Y-62213663D01*
X26335063Y-61985408D01*
X26355659Y-61750000D01*
X26335063Y-61514592D01*
X26273903Y-61286337D01*
X26174035Y-61072171D01*
X26038495Y-60878599D01*
X26038494Y-60878597D01*
X25871402Y-60711506D01*
X25871396Y-60711501D01*
X25685842Y-60581575D01*
X25642217Y-60526998D01*
X25635023Y-60457500D01*
X25666546Y-60395145D01*
X25685842Y-60378425D01*
X25708026Y-60362891D01*
X25871401Y-60248495D01*
X26038495Y-60081401D01*
X26174035Y-59887830D01*
X26273903Y-59673663D01*
X26335063Y-59445408D01*
X26355659Y-59210000D01*
X26335063Y-58974592D01*
X26273903Y-58746337D01*
X26174035Y-58532171D01*
X26038495Y-58338599D01*
X26038494Y-58338597D01*
X25871401Y-58171505D01*
X25685405Y-58041269D01*
X25641781Y-57986692D01*
X25634588Y-57917193D01*
X25666110Y-57854839D01*
X25685405Y-57838119D01*
X25871082Y-57708105D01*
X26038105Y-57541082D01*
X26173600Y-57347578D01*
X26242096Y-57200687D01*
X33199318Y-57200687D01*
X33203967Y-57236002D01*
X33203970Y-57236022D01*
X33219955Y-57357445D01*
X33219956Y-57357447D01*
X33280464Y-57503526D01*
X33376718Y-57628967D01*
X33376721Y-57628969D01*
X33401767Y-57648188D01*
X33413962Y-57658883D01*
X33831116Y-58076038D01*
X33841811Y-58088233D01*
X33861032Y-58113282D01*
X33861033Y-58113283D01*
X33889297Y-58134970D01*
X33889319Y-58134988D01*
X33892528Y-58137450D01*
X33986472Y-58209536D01*
X33986474Y-58209536D01*
X33986476Y-58209538D01*
X34059511Y-58239790D01*
X34132551Y-58270044D01*
X34210932Y-58280363D01*
X34289312Y-58290682D01*
X34289313Y-58290682D01*
X34320615Y-58286560D01*
X34336800Y-58285500D01*
X40462513Y-58285500D01*
X40478697Y-58286560D01*
X40510000Y-58290682D01*
X40510001Y-58290682D01*
X40562254Y-58283802D01*
X40666762Y-58270044D01*
X40812841Y-58209536D01*
X40862404Y-58171505D01*
X40938282Y-58113282D01*
X40957509Y-58088223D01*
X40968190Y-58076043D01*
X47479228Y-51565005D01*
X62577764Y-51565005D01*
X62597473Y-51802869D01*
X62597475Y-51802881D01*
X62656070Y-52034267D01*
X62751951Y-52252852D01*
X62751953Y-52252856D01*
X62882506Y-52452682D01*
X63044168Y-52628295D01*
X63232531Y-52774903D01*
X63442455Y-52888509D01*
X63668216Y-52966012D01*
X63903653Y-53005300D01*
X63903654Y-53005300D01*
X64142346Y-53005300D01*
X64142347Y-53005300D01*
X64377784Y-52966012D01*
X64603545Y-52888509D01*
X64813469Y-52774903D01*
X65001832Y-52628295D01*
X65163494Y-52452682D01*
X65189191Y-52413350D01*
X65242337Y-52367993D01*
X65311568Y-52358569D01*
X65374904Y-52388071D01*
X65396809Y-52413350D01*
X65422506Y-52452682D01*
X65584168Y-52628295D01*
X65772531Y-52774903D01*
X65982455Y-52888509D01*
X66208216Y-52966012D01*
X66443653Y-53005300D01*
X66443654Y-53005300D01*
X66682346Y-53005300D01*
X66682347Y-53005300D01*
X66917784Y-52966012D01*
X67143545Y-52888509D01*
X67353469Y-52774903D01*
X67541832Y-52628295D01*
X67703494Y-52452682D01*
X67834047Y-52252856D01*
X67929929Y-52034267D01*
X67988525Y-51802878D01*
X67988526Y-51802869D01*
X68008236Y-51565005D01*
X68008236Y-51564994D01*
X67988526Y-51327130D01*
X67988524Y-51327118D01*
X67929929Y-51095732D01*
X67834048Y-50877147D01*
X67834047Y-50877144D01*
X67703494Y-50677318D01*
X67541832Y-50501705D01*
X67516327Y-50481854D01*
X67475515Y-50425144D01*
X67471842Y-50355371D01*
X67506473Y-50294688D01*
X67533472Y-50274948D01*
X67607469Y-50234903D01*
X67795832Y-50088295D01*
X67957494Y-49912682D01*
X68088047Y-49712856D01*
X68183929Y-49494267D01*
X68242525Y-49262878D01*
X68242532Y-49262796D01*
X68262236Y-49025005D01*
X68262236Y-49024994D01*
X68242526Y-48787130D01*
X68242524Y-48787118D01*
X68183929Y-48555732D01*
X68103410Y-48372169D01*
X68088047Y-48337144D01*
X67957494Y-48137318D01*
X67795832Y-47961705D01*
X67607469Y-47815097D01*
X67607462Y-47815092D01*
X67533473Y-47775051D01*
X67483882Y-47725832D01*
X67468775Y-47657615D01*
X67492946Y-47592059D01*
X67516327Y-47568145D01*
X67541832Y-47548295D01*
X67703494Y-47372682D01*
X67834047Y-47172856D01*
X67929929Y-46954267D01*
X67988525Y-46722878D01*
X67988526Y-46722869D01*
X68008236Y-46485005D01*
X68008236Y-46484994D01*
X67988526Y-46247130D01*
X67988524Y-46247118D01*
X67929929Y-46015732D01*
X67834048Y-45797147D01*
X67834047Y-45797144D01*
X67703494Y-45597318D01*
X67541832Y-45421705D01*
X67516327Y-45401854D01*
X67475515Y-45345144D01*
X67471842Y-45275371D01*
X67506473Y-45214688D01*
X67533472Y-45194948D01*
X67607469Y-45154903D01*
X67795832Y-45008295D01*
X67957494Y-44832682D01*
X68088047Y-44632856D01*
X68183929Y-44414267D01*
X68242525Y-44182878D01*
X68242526Y-44182869D01*
X68262236Y-43945005D01*
X68262236Y-43944994D01*
X68242526Y-43707130D01*
X68242524Y-43707118D01*
X68183929Y-43475732D01*
X68088048Y-43257147D01*
X68088047Y-43257144D01*
X67957494Y-43057318D01*
X67795832Y-42881705D01*
X67607469Y-42735097D01*
X67607462Y-42735092D01*
X67533473Y-42695051D01*
X67483882Y-42645832D01*
X67468775Y-42577615D01*
X67492946Y-42512059D01*
X67516327Y-42488145D01*
X67541832Y-42468295D01*
X67703494Y-42292682D01*
X67834047Y-42092856D01*
X67929929Y-41874267D01*
X67988525Y-41642878D01*
X67996007Y-41552584D01*
X68008236Y-41405005D01*
X68008236Y-41404994D01*
X67988526Y-41167130D01*
X67988524Y-41167118D01*
X67929929Y-40935732D01*
X67834048Y-40717147D01*
X67834047Y-40717144D01*
X67703494Y-40517318D01*
X67541832Y-40341705D01*
X67353469Y-40195097D01*
X67244641Y-40136202D01*
X67143546Y-40081491D01*
X67143541Y-40081489D01*
X66917786Y-40003988D01*
X66760826Y-39977796D01*
X66682347Y-39964700D01*
X66443653Y-39964700D01*
X66384793Y-39974522D01*
X66208213Y-40003988D01*
X65982458Y-40081489D01*
X65982453Y-40081491D01*
X65772529Y-40195098D01*
X65584169Y-40341704D01*
X65422508Y-40517315D01*
X65422506Y-40517317D01*
X65422506Y-40517318D01*
X65412830Y-40532129D01*
X65396808Y-40556652D01*
X65343661Y-40602008D01*
X65274430Y-40611431D01*
X65211094Y-40581928D01*
X65189192Y-40556652D01*
X65173174Y-40532135D01*
X65163494Y-40517318D01*
X65001832Y-40341705D01*
X64813469Y-40195097D01*
X64704641Y-40136202D01*
X64603546Y-40081491D01*
X64603541Y-40081489D01*
X64377786Y-40003988D01*
X64220826Y-39977796D01*
X64142347Y-39964700D01*
X63903653Y-39964700D01*
X63844793Y-39974522D01*
X63668213Y-40003988D01*
X63442458Y-40081489D01*
X63442453Y-40081491D01*
X63232529Y-40195098D01*
X63044169Y-40341704D01*
X62882506Y-40517317D01*
X62751951Y-40717147D01*
X62656070Y-40935732D01*
X62597475Y-41167118D01*
X62597473Y-41167130D01*
X62577764Y-41404994D01*
X62577764Y-41405005D01*
X62597473Y-41642869D01*
X62597475Y-41642881D01*
X62656070Y-41874267D01*
X62740980Y-42067841D01*
X62751953Y-42092856D01*
X62882506Y-42292682D01*
X63044168Y-42468295D01*
X63232531Y-42614903D01*
X63306526Y-42654947D01*
X63356116Y-42704167D01*
X63371224Y-42772383D01*
X63347054Y-42837939D01*
X63323671Y-42861855D01*
X63298170Y-42881703D01*
X63136506Y-43057317D01*
X63005951Y-43257147D01*
X62910070Y-43475732D01*
X62851475Y-43707118D01*
X62851473Y-43707130D01*
X62831764Y-43944994D01*
X62831764Y-43945005D01*
X62851473Y-44182869D01*
X62851475Y-44182881D01*
X62910070Y-44414267D01*
X63005951Y-44632852D01*
X63005953Y-44632856D01*
X63136506Y-44832682D01*
X63298168Y-45008295D01*
X63298171Y-45008297D01*
X63298171Y-45008298D01*
X63323668Y-45028142D01*
X63364483Y-45084852D01*
X63368158Y-45154625D01*
X63333528Y-45215308D01*
X63306527Y-45235051D01*
X63232533Y-45275095D01*
X63232530Y-45275097D01*
X63044169Y-45421704D01*
X62882506Y-45597317D01*
X62751951Y-45797147D01*
X62656070Y-46015732D01*
X62597475Y-46247118D01*
X62597473Y-46247130D01*
X62577764Y-46484994D01*
X62577764Y-46485005D01*
X62597473Y-46722869D01*
X62597475Y-46722881D01*
X62656070Y-46954267D01*
X62751951Y-47172852D01*
X62751953Y-47172856D01*
X62882506Y-47372682D01*
X63044168Y-47548295D01*
X63232531Y-47694903D01*
X63306526Y-47734947D01*
X63356116Y-47784167D01*
X63371224Y-47852383D01*
X63347054Y-47917939D01*
X63323671Y-47941855D01*
X63298170Y-47961703D01*
X63136506Y-48137317D01*
X63005951Y-48337147D01*
X62910070Y-48555732D01*
X62851475Y-48787118D01*
X62851473Y-48787130D01*
X62831764Y-49024994D01*
X62831764Y-49025005D01*
X62851473Y-49262869D01*
X62851475Y-49262881D01*
X62910070Y-49494267D01*
X63005847Y-49712614D01*
X63005953Y-49712856D01*
X63136506Y-49912682D01*
X63298168Y-50088295D01*
X63298171Y-50088297D01*
X63298171Y-50088298D01*
X63323668Y-50108142D01*
X63364483Y-50164852D01*
X63368158Y-50234625D01*
X63333528Y-50295308D01*
X63306527Y-50315051D01*
X63232533Y-50355095D01*
X63232530Y-50355097D01*
X63044169Y-50501704D01*
X62882506Y-50677317D01*
X62751951Y-50877147D01*
X62656070Y-51095732D01*
X62597475Y-51327118D01*
X62597473Y-51327130D01*
X62577764Y-51564994D01*
X62577764Y-51565005D01*
X47479228Y-51565005D01*
X56821043Y-42223190D01*
X56833223Y-42212509D01*
X56858282Y-42193282D01*
X56954536Y-42067841D01*
X57015044Y-41921762D01*
X57030500Y-41804361D01*
X57035682Y-41765000D01*
X57031561Y-41733697D01*
X57030500Y-41717512D01*
X57030500Y-32644090D01*
X57050185Y-32577051D01*
X57102101Y-32531706D01*
X57107830Y-32529035D01*
X57301401Y-32393495D01*
X57468495Y-32226401D01*
X57604035Y-32032830D01*
X57703903Y-31818663D01*
X57765063Y-31590408D01*
X57785659Y-31355000D01*
X57765063Y-31119592D01*
X57703903Y-30891337D01*
X57604035Y-30677171D01*
X57604034Y-30677169D01*
X57468494Y-30483597D01*
X57301402Y-30316506D01*
X57301396Y-30316501D01*
X57115842Y-30186575D01*
X57072217Y-30131998D01*
X57065023Y-30062500D01*
X57096546Y-30000145D01*
X57115842Y-29983425D01*
X57258325Y-29883657D01*
X57301401Y-29853495D01*
X57468495Y-29686401D01*
X57604035Y-29492830D01*
X57703903Y-29278663D01*
X57765063Y-29050408D01*
X57785659Y-28815000D01*
X57765063Y-28579592D01*
X57703903Y-28351337D01*
X57604035Y-28137171D01*
X57598731Y-28129595D01*
X57468494Y-27943597D01*
X57301402Y-27776506D01*
X57301395Y-27776501D01*
X57107834Y-27640967D01*
X57107830Y-27640965D01*
X57067777Y-27622288D01*
X56893663Y-27541097D01*
X56893659Y-27541096D01*
X56893655Y-27541094D01*
X56665413Y-27479938D01*
X56665403Y-27479936D01*
X56430001Y-27459341D01*
X56429999Y-27459341D01*
X56194596Y-27479936D01*
X56194586Y-27479938D01*
X55966344Y-27541094D01*
X55966335Y-27541098D01*
X55752171Y-27640964D01*
X55752169Y-27640965D01*
X55558597Y-27776505D01*
X55391505Y-27943597D01*
X55261269Y-28129595D01*
X55206692Y-28173220D01*
X55137194Y-28180414D01*
X55074839Y-28148891D01*
X55058119Y-28129595D01*
X55004925Y-28053626D01*
X55004925Y-28053625D01*
X54373076Y-28685475D01*
X54349493Y-28605156D01*
X54271761Y-28484202D01*
X54163100Y-28390048D01*
X54032315Y-28330320D01*
X54022533Y-28328913D01*
X54651373Y-27700073D01*
X54651373Y-27700072D01*
X54567583Y-27641402D01*
X54567579Y-27641400D01*
X54353492Y-27541570D01*
X54353483Y-27541566D01*
X54125326Y-27480432D01*
X54125315Y-27480430D01*
X53890002Y-27459843D01*
X53889998Y-27459843D01*
X53654684Y-27480430D01*
X53654673Y-27480432D01*
X53426516Y-27541566D01*
X53426507Y-27541570D01*
X53212419Y-27641401D01*
X53128625Y-27700072D01*
X53757466Y-28328913D01*
X53747685Y-28330320D01*
X53616900Y-28390048D01*
X53508239Y-28484202D01*
X53430507Y-28605156D01*
X53406923Y-28685476D01*
X52775072Y-28053625D01*
X52775072Y-28053626D01*
X52721574Y-28130030D01*
X52666998Y-28173655D01*
X52597499Y-28180849D01*
X52535144Y-28149326D01*
X52518424Y-28130030D01*
X52464925Y-28053626D01*
X52464925Y-28053625D01*
X51833076Y-28685475D01*
X51809493Y-28605156D01*
X51731761Y-28484202D01*
X51623100Y-28390048D01*
X51492315Y-28330320D01*
X51482533Y-28328913D01*
X52111373Y-27700073D01*
X52111373Y-27700072D01*
X52027583Y-27641402D01*
X52027579Y-27641400D01*
X51813492Y-27541570D01*
X51813483Y-27541566D01*
X51585326Y-27480432D01*
X51585315Y-27480430D01*
X51350002Y-27459843D01*
X51349998Y-27459843D01*
X51114684Y-27480430D01*
X51114673Y-27480432D01*
X50886516Y-27541566D01*
X50886507Y-27541570D01*
X50672419Y-27641401D01*
X50588625Y-27700072D01*
X51217466Y-28328913D01*
X51207685Y-28330320D01*
X51076900Y-28390048D01*
X50968239Y-28484202D01*
X50890507Y-28605156D01*
X50866923Y-28685476D01*
X50235072Y-28053625D01*
X50235072Y-28053626D01*
X50181574Y-28130030D01*
X50126998Y-28173655D01*
X50057499Y-28180849D01*
X49995144Y-28149326D01*
X49978424Y-28130030D01*
X49924925Y-28053626D01*
X49924925Y-28053625D01*
X49293076Y-28685475D01*
X49269493Y-28605156D01*
X49191761Y-28484202D01*
X49083100Y-28390048D01*
X48952315Y-28330320D01*
X48942533Y-28328913D01*
X49571373Y-27700073D01*
X49571373Y-27700072D01*
X49487583Y-27641402D01*
X49487579Y-27641400D01*
X49273492Y-27541570D01*
X49273483Y-27541566D01*
X49045326Y-27480432D01*
X49045315Y-27480430D01*
X48810002Y-27459843D01*
X48809998Y-27459843D01*
X48574684Y-27480430D01*
X48574673Y-27480432D01*
X48346516Y-27541566D01*
X48346507Y-27541570D01*
X48132419Y-27641401D01*
X48048625Y-27700072D01*
X48677466Y-28328913D01*
X48667685Y-28330320D01*
X48536900Y-28390048D01*
X48428239Y-28484202D01*
X48350507Y-28605156D01*
X48326923Y-28685476D01*
X47690655Y-28049208D01*
X47638806Y-28038788D01*
X47588623Y-27990173D01*
X47578793Y-27968031D01*
X47570697Y-27943599D01*
X47554814Y-27895666D01*
X47462712Y-27746344D01*
X47338656Y-27622288D01*
X47207784Y-27541566D01*
X47189336Y-27530187D01*
X47189331Y-27530185D01*
X47187862Y-27529698D01*
X47022797Y-27475001D01*
X47022795Y-27475000D01*
X46920010Y-27464500D01*
X45619998Y-27464500D01*
X45619981Y-27464501D01*
X45517203Y-27475000D01*
X45517200Y-27475001D01*
X45350668Y-27530185D01*
X45350663Y-27530187D01*
X45201342Y-27622289D01*
X45077289Y-27746342D01*
X44985187Y-27895663D01*
X44985185Y-27895668D01*
X44961207Y-27968031D01*
X44930001Y-28062203D01*
X44930001Y-28062204D01*
X44930000Y-28062204D01*
X44919500Y-28164983D01*
X44919500Y-29465001D01*
X44919501Y-29465018D01*
X44930000Y-29567796D01*
X44930001Y-29567799D01*
X44969303Y-29686402D01*
X44985186Y-29734334D01*
X45077288Y-29883656D01*
X45201344Y-30007712D01*
X45350666Y-30099814D01*
X45359264Y-30102663D01*
X45416707Y-30142433D01*
X45443531Y-30206948D01*
X45431217Y-30275724D01*
X45402234Y-30312483D01*
X45402427Y-30312676D01*
X45400798Y-30314304D01*
X45399975Y-30315349D01*
X45398599Y-30316503D01*
X45231506Y-30483596D01*
X45095965Y-30677170D01*
X45095962Y-30677175D01*
X45093289Y-30682909D01*
X45047115Y-30735346D01*
X44980909Y-30754500D01*
X40842487Y-30754500D01*
X40826302Y-30753439D01*
X40795000Y-30749318D01*
X40755639Y-30754500D01*
X40638239Y-30769955D01*
X40638237Y-30769956D01*
X40492157Y-30830464D01*
X40366718Y-30926716D01*
X40347489Y-30951775D01*
X40336798Y-30963965D01*
X35631965Y-35668798D01*
X35619774Y-35679490D01*
X35594718Y-35698717D01*
X35570549Y-35730213D01*
X35570550Y-35730214D01*
X35498464Y-35824158D01*
X35498461Y-35824163D01*
X35437957Y-35970234D01*
X35437955Y-35970239D01*
X35417318Y-36126998D01*
X35417318Y-36126999D01*
X35421439Y-36158301D01*
X35422500Y-36174487D01*
X35422500Y-40018401D01*
X35402815Y-40085440D01*
X35357519Y-40127455D01*
X35232533Y-40195095D01*
X35232530Y-40195097D01*
X35044169Y-40341704D01*
X34882506Y-40517317D01*
X34751951Y-40717147D01*
X34656070Y-40935732D01*
X34597475Y-41167118D01*
X34597473Y-41167130D01*
X34577764Y-41404994D01*
X34577764Y-41405005D01*
X34597473Y-41642869D01*
X34597475Y-41642881D01*
X34656070Y-41874267D01*
X34740980Y-42067841D01*
X34751953Y-42092856D01*
X34882506Y-42292682D01*
X35044168Y-42468295D01*
X35232531Y-42614903D01*
X35306526Y-42654947D01*
X35356116Y-42704167D01*
X35371224Y-42772383D01*
X35347054Y-42837939D01*
X35323671Y-42861855D01*
X35298170Y-42881703D01*
X35136506Y-43057317D01*
X35005951Y-43257147D01*
X34910070Y-43475732D01*
X34851475Y-43707118D01*
X34851473Y-43707130D01*
X34831764Y-43944994D01*
X34831764Y-43945005D01*
X34851473Y-44182869D01*
X34851475Y-44182881D01*
X34910070Y-44414267D01*
X35005951Y-44632852D01*
X35005953Y-44632856D01*
X35136506Y-44832682D01*
X35298168Y-45008295D01*
X35298171Y-45008297D01*
X35298171Y-45008298D01*
X35323668Y-45028142D01*
X35364483Y-45084852D01*
X35368158Y-45154625D01*
X35333528Y-45215308D01*
X35306527Y-45235051D01*
X35232533Y-45275095D01*
X35232530Y-45275097D01*
X35044169Y-45421704D01*
X34882506Y-45597317D01*
X34751951Y-45797147D01*
X34656070Y-46015732D01*
X34597475Y-46247118D01*
X34597473Y-46247130D01*
X34577764Y-46484994D01*
X34577764Y-46485005D01*
X34597473Y-46722869D01*
X34597475Y-46722881D01*
X34656070Y-46954267D01*
X34751951Y-47172852D01*
X34751953Y-47172856D01*
X34882506Y-47372682D01*
X35044168Y-47548295D01*
X35232531Y-47694903D01*
X35382098Y-47775845D01*
X35431687Y-47825064D01*
X35431996Y-47826443D01*
X36137400Y-48531847D01*
X36132408Y-48532565D01*
X35999530Y-48593248D01*
X35889131Y-48688910D01*
X35810155Y-48811799D01*
X35787477Y-48889031D01*
X35097056Y-48198610D01*
X35006392Y-48337383D01*
X35006390Y-48337387D01*
X34910545Y-48555895D01*
X34851969Y-48787203D01*
X34851967Y-48787211D01*
X34832265Y-49024993D01*
X34832265Y-49025006D01*
X34851967Y-49262788D01*
X34851969Y-49262796D01*
X34910545Y-49494104D01*
X35006392Y-49712617D01*
X35097055Y-49851388D01*
X35787477Y-49160968D01*
X35810155Y-49238201D01*
X35889131Y-49361090D01*
X35999530Y-49456752D01*
X36132408Y-49517435D01*
X36137399Y-49518152D01*
X35431744Y-50223807D01*
X35431349Y-50225548D01*
X35382098Y-50274154D01*
X35338960Y-50297500D01*
X35232529Y-50355098D01*
X35044169Y-50501704D01*
X34882506Y-50677317D01*
X34751951Y-50877147D01*
X34656070Y-51095732D01*
X34597475Y-51327118D01*
X34597473Y-51327130D01*
X34577764Y-51564994D01*
X34577764Y-51565005D01*
X34597473Y-51802869D01*
X34597475Y-51802881D01*
X34648560Y-52004607D01*
X34645935Y-52074427D01*
X34616035Y-52122728D01*
X33413965Y-53324798D01*
X33401774Y-53335490D01*
X33376718Y-53354717D01*
X33352549Y-53386213D01*
X33352550Y-53386214D01*
X33280464Y-53480158D01*
X33280461Y-53480163D01*
X33219957Y-53626234D01*
X33219955Y-53626239D01*
X33199318Y-53782998D01*
X33199318Y-53782999D01*
X33203439Y-53814301D01*
X33204500Y-53830487D01*
X33204500Y-57153196D01*
X33203439Y-57169381D01*
X33199318Y-57200682D01*
X33199318Y-57200687D01*
X26242096Y-57200687D01*
X26273429Y-57133492D01*
X26273432Y-57133486D01*
X26330636Y-56920000D01*
X25433686Y-56920000D01*
X25459493Y-56879844D01*
X25500000Y-56741889D01*
X25500000Y-56598111D01*
X25459493Y-56460156D01*
X25433686Y-56420000D01*
X26330636Y-56420000D01*
X26330635Y-56419999D01*
X26273432Y-56206513D01*
X26273429Y-56206507D01*
X26173600Y-55992422D01*
X26173599Y-55992420D01*
X26038113Y-55798926D01*
X26038108Y-55798920D01*
X25871078Y-55631890D01*
X25685405Y-55501879D01*
X25641780Y-55447302D01*
X25634588Y-55377804D01*
X25666110Y-55315449D01*
X25685406Y-55298730D01*
X25685842Y-55298425D01*
X25871401Y-55168495D01*
X26038495Y-55001401D01*
X26174035Y-54807830D01*
X26273903Y-54593663D01*
X26335063Y-54365408D01*
X26355659Y-54130000D01*
X26335063Y-53894592D01*
X26273903Y-53666337D01*
X26174035Y-53452171D01*
X26127853Y-53386215D01*
X26038494Y-53258597D01*
X25871402Y-53091506D01*
X25871396Y-53091501D01*
X25685842Y-52961575D01*
X25642217Y-52906998D01*
X25635023Y-52837500D01*
X25666546Y-52775145D01*
X25685842Y-52758425D01*
X25708026Y-52742891D01*
X25871401Y-52628495D01*
X26038495Y-52461401D01*
X26174035Y-52267830D01*
X26273903Y-52053663D01*
X26335063Y-51825408D01*
X26355659Y-51590000D01*
X26335063Y-51354592D01*
X26273903Y-51126337D01*
X26174035Y-50912171D01*
X26075489Y-50771431D01*
X26038494Y-50718597D01*
X25871402Y-50551506D01*
X25871401Y-50551505D01*
X25685405Y-50421269D01*
X25641781Y-50366692D01*
X25634588Y-50297193D01*
X25666110Y-50234839D01*
X25685405Y-50218119D01*
X25871082Y-50088105D01*
X26038105Y-49921082D01*
X26173600Y-49727578D01*
X26273429Y-49513492D01*
X26273432Y-49513486D01*
X26330636Y-49300000D01*
X25433686Y-49300000D01*
X25459493Y-49259844D01*
X25500000Y-49121889D01*
X25500000Y-48978111D01*
X25459493Y-48840156D01*
X25433686Y-48800000D01*
X26330636Y-48800000D01*
X26330635Y-48799999D01*
X26273432Y-48586513D01*
X26273429Y-48586507D01*
X26173600Y-48372422D01*
X26173599Y-48372420D01*
X26038113Y-48178926D01*
X26038108Y-48178920D01*
X25871078Y-48011890D01*
X25685405Y-47881879D01*
X25641780Y-47827302D01*
X25634588Y-47757804D01*
X25666110Y-47695449D01*
X25685406Y-47678730D01*
X25715083Y-47657950D01*
X25871401Y-47548495D01*
X26038495Y-47381401D01*
X26174035Y-47187830D01*
X26273903Y-46973663D01*
X26335063Y-46745408D01*
X26355659Y-46510000D01*
X26335063Y-46274592D01*
X26273903Y-46046337D01*
X26174035Y-45832171D01*
X26075489Y-45691431D01*
X26038494Y-45638597D01*
X25871402Y-45471506D01*
X25871396Y-45471501D01*
X25685842Y-45341575D01*
X25642217Y-45286998D01*
X25635023Y-45217500D01*
X25666546Y-45155145D01*
X25685842Y-45138425D01*
X25843342Y-45028142D01*
X25871401Y-45008495D01*
X26038495Y-44841401D01*
X26174035Y-44647830D01*
X26273903Y-44433663D01*
X26335063Y-44205408D01*
X26355659Y-43970000D01*
X26335063Y-43734592D01*
X26273903Y-43506337D01*
X26174035Y-43292171D01*
X26075488Y-43151431D01*
X26038496Y-43098600D01*
X25997211Y-43057315D01*
X25916567Y-42976671D01*
X25883084Y-42915351D01*
X25888068Y-42845659D01*
X25929939Y-42789725D01*
X25960915Y-42772810D01*
X26092331Y-42723796D01*
X26207546Y-42637546D01*
X26293796Y-42522331D01*
X26344091Y-42387483D01*
X26350500Y-42327873D01*
X26350499Y-40532128D01*
X26344091Y-40472517D01*
X26295301Y-40341705D01*
X26293797Y-40337671D01*
X26293793Y-40337664D01*
X26207547Y-40222455D01*
X26207544Y-40222452D01*
X26092335Y-40136206D01*
X26092328Y-40136202D01*
X25957482Y-40085908D01*
X25957483Y-40085908D01*
X25897883Y-40079501D01*
X25897881Y-40079500D01*
X25897873Y-40079500D01*
X25897864Y-40079500D01*
X24102129Y-40079500D01*
X24102123Y-40079501D01*
X24042516Y-40085908D01*
X23907671Y-40136202D01*
X23907664Y-40136206D01*
X23792455Y-40222452D01*
X23792452Y-40222455D01*
X23706206Y-40337664D01*
X23706202Y-40337671D01*
X23655908Y-40472517D01*
X23651092Y-40517317D01*
X23649501Y-40532123D01*
X23649500Y-40532135D01*
X23649500Y-42327870D01*
X23649501Y-42327876D01*
X23655908Y-42387483D01*
X23706202Y-42522328D01*
X23706206Y-42522335D01*
X23792452Y-42637544D01*
X23792455Y-42637547D01*
X23907664Y-42723793D01*
X23907671Y-42723797D01*
X24039081Y-42772810D01*
X24095015Y-42814681D01*
X24119432Y-42880145D01*
X24104580Y-42948418D01*
X24083430Y-42976673D01*
X23961503Y-43098600D01*
X23825965Y-43292169D01*
X23825964Y-43292171D01*
X23726098Y-43506335D01*
X23726094Y-43506344D01*
X23664938Y-43734586D01*
X23664936Y-43734596D01*
X23644341Y-43969999D01*
X23644341Y-43970000D01*
X23664936Y-44205403D01*
X23664938Y-44205413D01*
X23726094Y-44433655D01*
X23726096Y-44433659D01*
X23726097Y-44433663D01*
X23819730Y-44634458D01*
X23825965Y-44647830D01*
X23825967Y-44647834D01*
X23961501Y-44841395D01*
X23961506Y-44841402D01*
X24128597Y-45008493D01*
X24128603Y-45008498D01*
X24314158Y-45138425D01*
X24357783Y-45193002D01*
X24364977Y-45262500D01*
X24333454Y-45324855D01*
X24314158Y-45341575D01*
X24128597Y-45471505D01*
X23961505Y-45638597D01*
X23825965Y-45832169D01*
X23825964Y-45832171D01*
X23726098Y-46046335D01*
X23726094Y-46046344D01*
X23664938Y-46274586D01*
X23664936Y-46274596D01*
X23644341Y-46509999D01*
X23644341Y-46510000D01*
X23664936Y-46745403D01*
X23664938Y-46745413D01*
X23726094Y-46973655D01*
X23726096Y-46973659D01*
X23726097Y-46973663D01*
X23819730Y-47174458D01*
X23825965Y-47187830D01*
X23825967Y-47187834D01*
X23889501Y-47278569D01*
X23961505Y-47381401D01*
X24128599Y-47548495D01*
X24284438Y-47657615D01*
X24314594Y-47678730D01*
X24358219Y-47733307D01*
X24365413Y-47802805D01*
X24333890Y-47865160D01*
X24314595Y-47881880D01*
X24128922Y-48011890D01*
X24128920Y-48011891D01*
X23961891Y-48178920D01*
X23961886Y-48178926D01*
X23826400Y-48372420D01*
X23826399Y-48372422D01*
X23726570Y-48586507D01*
X23726567Y-48586513D01*
X23669364Y-48799999D01*
X23669364Y-48800000D01*
X24566314Y-48800000D01*
X24540507Y-48840156D01*
X24500000Y-48978111D01*
X24500000Y-49121889D01*
X24540507Y-49259844D01*
X24566314Y-49300000D01*
X23669364Y-49300000D01*
X23726567Y-49513486D01*
X23726570Y-49513492D01*
X23826399Y-49727578D01*
X23961894Y-49921082D01*
X24128917Y-50088105D01*
X24314595Y-50218119D01*
X24358219Y-50272696D01*
X24365412Y-50342195D01*
X24333890Y-50404549D01*
X24314595Y-50421269D01*
X24128594Y-50551508D01*
X23961505Y-50718597D01*
X23825965Y-50912169D01*
X23825964Y-50912171D01*
X23726098Y-51126335D01*
X23726094Y-51126344D01*
X23664938Y-51354586D01*
X23664936Y-51354596D01*
X23644341Y-51589999D01*
X23644341Y-51590000D01*
X23664936Y-51825403D01*
X23664938Y-51825413D01*
X23726094Y-52053655D01*
X23726096Y-52053659D01*
X23726097Y-52053663D01*
X23819730Y-52254458D01*
X23825965Y-52267830D01*
X23825967Y-52267834D01*
X23961501Y-52461395D01*
X23961506Y-52461402D01*
X24128597Y-52628493D01*
X24128603Y-52628498D01*
X24314158Y-52758425D01*
X24357783Y-52813002D01*
X24364977Y-52882500D01*
X24333454Y-52944855D01*
X24314158Y-52961575D01*
X24128597Y-53091505D01*
X23961505Y-53258597D01*
X23825965Y-53452169D01*
X23825964Y-53452171D01*
X23726098Y-53666335D01*
X23726094Y-53666344D01*
X23664938Y-53894586D01*
X23664936Y-53894596D01*
X23644341Y-54129999D01*
X23644341Y-54130000D01*
X23664936Y-54365403D01*
X23664938Y-54365413D01*
X23726094Y-54593655D01*
X23726096Y-54593659D01*
X23726097Y-54593663D01*
X23825965Y-54807830D01*
X23825967Y-54807834D01*
X23961501Y-55001395D01*
X23961506Y-55001402D01*
X24128597Y-55168493D01*
X24128603Y-55168498D01*
X24314594Y-55298730D01*
X24358219Y-55353307D01*
X24365413Y-55422805D01*
X24333890Y-55485160D01*
X24314595Y-55501880D01*
X24128922Y-55631890D01*
X24128920Y-55631891D01*
X23961891Y-55798920D01*
X23961886Y-55798926D01*
X23826400Y-55992420D01*
X23826399Y-55992422D01*
X23726570Y-56206507D01*
X23726567Y-56206513D01*
X23669364Y-56419999D01*
X23669364Y-56420000D01*
X24566314Y-56420000D01*
X24540507Y-56460156D01*
X24500000Y-56598111D01*
X24500000Y-56741889D01*
X24540507Y-56879844D01*
X24566314Y-56920000D01*
X23669364Y-56920000D01*
X23726567Y-57133486D01*
X23726570Y-57133492D01*
X23826399Y-57347578D01*
X23961894Y-57541082D01*
X24128917Y-57708105D01*
X24314595Y-57838119D01*
X24358219Y-57892696D01*
X24365412Y-57962195D01*
X24333890Y-58024549D01*
X24314595Y-58041269D01*
X24128594Y-58171508D01*
X23961505Y-58338597D01*
X23825965Y-58532169D01*
X23825964Y-58532171D01*
X23726098Y-58746335D01*
X23726094Y-58746344D01*
X23664938Y-58974586D01*
X23664936Y-58974596D01*
X23644341Y-59209999D01*
X23644341Y-59210000D01*
X23664936Y-59445403D01*
X23664938Y-59445413D01*
X23726094Y-59673655D01*
X23726096Y-59673659D01*
X23726097Y-59673663D01*
X23825965Y-59887830D01*
X23825967Y-59887834D01*
X23961501Y-60081395D01*
X23961506Y-60081402D01*
X24128597Y-60248493D01*
X24128603Y-60248498D01*
X24314158Y-60378425D01*
X24357783Y-60433002D01*
X24364977Y-60502500D01*
X24333454Y-60564855D01*
X24314158Y-60581575D01*
X24128597Y-60711505D01*
X23961505Y-60878597D01*
X23825965Y-61072169D01*
X23825964Y-61072171D01*
X23726098Y-61286335D01*
X23726094Y-61286344D01*
X23664938Y-61514586D01*
X23664936Y-61514596D01*
X23644341Y-61749999D01*
X23644341Y-61750000D01*
X23664936Y-61985403D01*
X23664938Y-61985413D01*
X23726094Y-62213655D01*
X23726096Y-62213659D01*
X23726097Y-62213663D01*
X23825965Y-62427830D01*
X23825967Y-62427834D01*
X23961501Y-62621395D01*
X23961506Y-62621402D01*
X24128597Y-62788493D01*
X24128603Y-62788498D01*
X24314158Y-62918425D01*
X24357783Y-62973002D01*
X24364977Y-63042500D01*
X24333454Y-63104855D01*
X24314158Y-63121575D01*
X24128597Y-63251505D01*
X23961505Y-63418597D01*
X23825965Y-63612169D01*
X23825964Y-63612171D01*
X23726098Y-63826335D01*
X23726094Y-63826344D01*
X23664938Y-64054586D01*
X23664936Y-64054596D01*
X23644341Y-64289999D01*
X23644341Y-64290000D01*
X20500500Y-64290000D01*
X20500500Y-20624500D01*
X20520185Y-20557461D01*
X20572989Y-20511706D01*
X20624500Y-20500500D01*
X81375500Y-20500500D01*
X81442539Y-20520185D01*
G37*
%TD.AperFunction*%
%TD*%
M02*
