%TF.GenerationSoftware,KiCad,Pcbnew,7.0.10*%
%TF.CreationDate,2024-02-02T23:11:49-08:00*%
%TF.ProjectId,Patch_SM_Breadboard_Adapter,50617463-685f-4534-9d5f-427265616462,rev?*%
%TF.SameCoordinates,Original*%
%TF.FileFunction,Soldermask,Bot*%
%TF.FilePolarity,Negative*%
%FSLAX46Y46*%
G04 Gerber Fmt 4.6, Leading zero omitted, Abs format (unit mm)*
G04 Created by KiCad (PCBNEW 7.0.10) date 2024-02-02 23:11:49*
%MOMM*%
%LPD*%
G01*
G04 APERTURE LIST*
G04 Aperture macros list*
%AMRoundRect*
0 Rectangle with rounded corners*
0 $1 Rounding radius*
0 $2 $3 $4 $5 $6 $7 $8 $9 X,Y pos of 4 corners*
0 Add a 4 corners polygon primitive as box body*
4,1,4,$2,$3,$4,$5,$6,$7,$8,$9,$2,$3,0*
0 Add four circle primitives for the rounded corners*
1,1,$1+$1,$2,$3*
1,1,$1+$1,$4,$5*
1,1,$1+$1,$6,$7*
1,1,$1+$1,$8,$9*
0 Add four rect primitives between the rounded corners*
20,1,$1+$1,$2,$3,$4,$5,0*
20,1,$1+$1,$4,$5,$6,$7,0*
20,1,$1+$1,$6,$7,$8,$9,0*
20,1,$1+$1,$8,$9,$2,$3,0*%
G04 Aperture macros list end*
%ADD10C,2.032000*%
%ADD11RoundRect,0.250000X-0.600000X0.600000X-0.600000X-0.600000X0.600000X-0.600000X0.600000X0.600000X0*%
%ADD12C,1.700000*%
%ADD13R,1.700000X1.700000*%
%ADD14O,1.700000X1.700000*%
G04 APERTURE END LIST*
D10*
%TO.C,U$1*%
X64023000Y-41405000D03*
X66563000Y-41405000D03*
X64277000Y-43945000D03*
X66817000Y-43945000D03*
X64023000Y-46485000D03*
X66563000Y-46485000D03*
X64277000Y-49025000D03*
X66817000Y-49025000D03*
X64023000Y-51565000D03*
X66563000Y-51565000D03*
X69500000Y-100088000D03*
X69500000Y-102628000D03*
X66960000Y-100342000D03*
X66960000Y-102882000D03*
X64420000Y-100088000D03*
X64420000Y-102628000D03*
X61880000Y-100342000D03*
X61880000Y-102882000D03*
X59340000Y-100088000D03*
X59340000Y-102628000D03*
X43500000Y-100088000D03*
X43500000Y-102628000D03*
X40960000Y-100342000D03*
X40960000Y-102882000D03*
X38420000Y-100088000D03*
X38420000Y-102628000D03*
X35880000Y-100342000D03*
X35880000Y-102882000D03*
X33340000Y-100088000D03*
X33340000Y-102628000D03*
X36023000Y-41405000D03*
X38563000Y-41405000D03*
X36277000Y-43945000D03*
X38817000Y-43945000D03*
X36023000Y-46485000D03*
X38563000Y-46485000D03*
X36277000Y-49025000D03*
X38817000Y-49025000D03*
X36023000Y-51565000D03*
X38563000Y-51565000D03*
%TD*%
D11*
%TO.C,REF\u002A\u002A*%
X46270000Y-28815000D03*
D12*
X46270000Y-31355000D03*
X48810000Y-28815000D03*
X48810000Y-31355000D03*
X51350000Y-28815000D03*
X51350000Y-31355000D03*
X53890000Y-28815000D03*
X53890000Y-31355000D03*
X56430000Y-28815000D03*
X56430000Y-31355000D03*
%TD*%
D13*
%TO.C,B*%
X25000000Y-82070000D03*
D14*
X25000000Y-84610000D03*
X25000000Y-87150000D03*
X25000000Y-89690000D03*
X25000000Y-92230000D03*
X25000000Y-94770000D03*
X25000000Y-97310000D03*
X25000000Y-99850000D03*
X25000000Y-102390000D03*
X25000000Y-104930000D03*
%TD*%
D13*
%TO.C,C*%
X77000000Y-82070000D03*
D14*
X77000000Y-84610000D03*
X77000000Y-87150000D03*
X77000000Y-89690000D03*
X77000000Y-92230000D03*
X77000000Y-94770000D03*
X77000000Y-97310000D03*
X77000000Y-99850000D03*
X77000000Y-102390000D03*
X77000000Y-104930000D03*
%TD*%
D13*
%TO.C,D*%
X77000000Y-41430000D03*
D14*
X77000000Y-43970000D03*
X77000000Y-46510000D03*
X77000000Y-49050000D03*
X77000000Y-51590000D03*
X77000000Y-54130000D03*
X77000000Y-56670000D03*
X77000000Y-59210000D03*
X77000000Y-61750000D03*
X77000000Y-64290000D03*
%TD*%
D13*
%TO.C,A*%
X25000000Y-41430000D03*
D14*
X25000000Y-43970000D03*
X25000000Y-46510000D03*
X25000000Y-49050000D03*
X25000000Y-51590000D03*
X25000000Y-54130000D03*
X25000000Y-56670000D03*
X25000000Y-59210000D03*
X25000000Y-61750000D03*
X25000000Y-64290000D03*
%TD*%
M02*
